<svg width="471" height="148" viewBox="0 0 471 148" fill="none" xmlns="http://www.w3.org/2000/svg">
<path d="M138 88.149L81.8544 142.716V131.103L124.776 88.149L84.5224 41.8124V27.607L138 88.149Z" fill="#EB9309"/>
<path d="M14.6884 61.0911L57.1456 17.2347V3.93127L1 61.0911L54.4776 119.942V106.188L14.6884 61.0911Z" fill="#EB9309"/>
<path d="M81.8544 1L27.9128 56.356H41.2532L81.8544 14.7544L122.572 59.4H135.796L81.8544 1Z" fill="#7FB432"/>
<path d="M78.8383 87.6981H59.3497V117.349L78.8383 96.2664V87.6981Z" fill="#EB9309"/>
<path d="M79.4183 27.607L59.0017 48.1259V58.4981H79.4183V27.607Z" fill="#EB9309"/>
<path d="M4.13209 88.149L57.1456 147L112.363 88.149H98.6749L57.1456 131.103L17.3565 88.149H4.13209Z" fill="#7FB432"/>
<path d="M92.0627 61.0911L109.695 85.105H47.8654L27.9128 61.0911H58.5377H92.0627Z" fill="#7FB432"/>
<path d="M138 88.149L81.8544 142.716V131.103L124.776 88.149L84.5224 41.8124V27.607L138 88.149Z" stroke="black" stroke-opacity="0.01"/>
<path d="M14.6884 61.0911L57.1456 17.2347V3.93127L1 61.0911L54.4776 119.942V106.188L14.6884 61.0911Z" stroke="black" stroke-opacity="0.01"/>
<path d="M81.8544 1L27.9128 56.356H41.2532L81.8544 14.7544L122.572 59.4H135.796L81.8544 1Z" stroke="black" stroke-opacity="0.01"/>
<path d="M78.8383 87.6981H59.3497V117.349L78.8383 96.2664V87.6981Z" stroke="black" stroke-opacity="0.01"/>
<path d="M79.4183 27.607L59.0017 48.1259V58.4981H79.4183V27.607Z" stroke="black" stroke-opacity="0.01"/>
<path d="M4.13209 88.149L57.1456 147L112.363 88.149H98.6749L57.1456 131.103L17.3565 88.149H4.13209Z" stroke="black" stroke-opacity="0.01"/>
<path d="M92.0627 61.0911L109.695 85.105H47.8654L27.9128 61.0911H58.5377H92.0627Z" stroke="black" stroke-opacity="0.01"/>
<path d="M166.729 78.9767C164.062 78.9767 161.729 78.56 159.729 77.7267C157.729 76.86 156.179 75.6433 155.079 74.0767C154.012 72.4767 153.479 70.6267 153.479 68.5267V67.4267C153.479 67.26 153.529 67.1267 153.629 67.0267C153.762 66.8933 153.912 66.8267 154.079 66.8267H159.779C159.946 66.8267 160.079 66.8933 160.179 67.0267C160.312 67.1267 160.379 67.26 160.379 67.4267V68.1767C160.379 69.51 160.996 70.6433 162.229 71.5767C163.462 72.4767 165.129 72.9267 167.229 72.9267C168.996 72.9267 170.312 72.56 171.179 71.8267C172.046 71.06 172.479 70.1267 172.479 69.0267C172.479 68.2267 172.212 67.56 171.679 67.0267C171.146 66.46 170.412 65.9767 169.479 65.5767C168.579 65.1433 167.129 64.56 165.129 63.8267C162.896 63.06 160.996 62.2767 159.429 61.4767C157.896 60.6767 156.596 59.5933 155.529 58.2267C154.496 56.8267 153.979 55.11 153.979 53.0767C153.979 51.0767 154.496 49.3267 155.529 47.8267C156.562 46.3267 157.996 45.1767 159.829 44.3767C161.662 43.5767 163.779 43.1767 166.179 43.1767C168.712 43.1767 170.962 43.6267 172.929 44.5267C174.929 45.4267 176.479 46.6933 177.579 48.3267C178.712 49.9267 179.279 51.7933 179.279 53.9267V54.6767C179.279 54.8433 179.212 54.9933 179.079 55.1267C178.979 55.2267 178.846 55.2767 178.679 55.2767H172.929C172.762 55.2767 172.612 55.2267 172.479 55.1267C172.379 54.9933 172.329 54.8433 172.329 54.6767V54.2767C172.329 52.8767 171.746 51.6933 170.579 50.7267C169.446 49.7267 167.879 49.2267 165.879 49.2267C164.312 49.2267 163.079 49.56 162.179 50.2267C161.312 50.8933 160.879 51.81 160.879 52.9767C160.879 53.81 161.129 54.51 161.629 55.0767C162.162 55.6433 162.929 56.16 163.929 56.6267C164.962 57.06 166.546 57.66 168.679 58.4267C171.046 59.2933 172.896 60.06 174.229 60.7267C175.596 61.3933 176.812 62.3933 177.879 63.7267C178.979 65.0267 179.529 66.7267 179.529 68.8267C179.529 71.96 178.379 74.4433 176.079 76.2767C173.779 78.0767 170.662 78.9767 166.729 78.9767ZM191.141 78.5767C190.774 78.5767 190.541 78.41 190.441 78.0767L181.591 44.2267L181.541 44.0267C181.541 43.7267 181.724 43.5767 182.091 43.5767H188.291C188.624 43.5767 188.841 43.7433 188.941 44.0767L193.691 64.4267C193.724 64.56 193.774 64.6267 193.841 64.6267C193.908 64.6267 193.958 64.56 193.991 64.4267L198.591 44.1267C198.691 43.76 198.908 43.5767 199.241 43.5767H205.291C205.658 43.5767 205.891 43.7433 205.991 44.0767L210.991 64.4267C211.024 64.5267 211.074 64.5933 211.141 64.6267C211.208 64.6267 211.258 64.56 211.291 64.4267L215.891 44.1267C215.991 43.76 216.208 43.5767 216.541 43.5767H222.441C222.908 43.5767 223.091 43.7933 222.991 44.2267L214.791 78.0767C214.691 78.41 214.458 78.5767 214.091 78.5767H208.141C207.808 78.5767 207.591 78.41 207.491 78.0767L202.391 56.4267C202.358 56.2933 202.308 56.2267 202.241 56.2267C202.174 56.2267 202.124 56.2933 202.091 56.4267L197.341 78.0267C197.274 78.3933 197.058 78.5767 196.691 78.5767H191.141ZM244.459 78.5767C244.126 78.5767 243.909 78.41 243.809 78.0767L242.309 73.1767C242.243 73.0433 242.159 72.9767 242.059 72.9767H229.759C229.659 72.9767 229.576 73.0433 229.509 73.1767L228.059 78.0767C227.959 78.41 227.743 78.5767 227.409 78.5767H221.059C220.859 78.5767 220.709 78.5267 220.609 78.4267C220.509 78.2933 220.493 78.11 220.559 77.8767L231.359 44.0767C231.459 43.7433 231.676 43.5767 232.009 43.5767H239.859C240.193 43.5767 240.409 43.7433 240.509 44.0767L251.309 77.8767C251.343 77.9433 251.359 78.0267 251.359 78.1267C251.359 78.4267 251.176 78.5767 250.809 78.5767H244.459ZM231.309 67.2267C231.276 67.4267 231.343 67.5267 231.509 67.5267H240.309C240.509 67.5267 240.576 67.4267 240.509 67.2267L236.009 52.3767C235.976 52.2433 235.926 52.1933 235.859 52.2267C235.793 52.2267 235.743 52.2767 235.709 52.3767L231.309 67.2267ZM265.557 78.9767C262.89 78.9767 260.557 78.56 258.557 77.7267C256.557 76.86 255.007 75.6433 253.907 74.0767C252.84 72.4767 252.307 70.6267 252.307 68.5267V67.4267C252.307 67.26 252.357 67.1267 252.457 67.0267C252.59 66.8933 252.74 66.8267 252.907 66.8267H258.607C258.774 66.8267 258.907 66.8933 259.007 67.0267C259.14 67.1267 259.207 67.26 259.207 67.4267V68.1767C259.207 69.51 259.824 70.6433 261.057 71.5767C262.29 72.4767 263.957 72.9267 266.057 72.9267C267.824 72.9267 269.14 72.56 270.007 71.8267C270.874 71.06 271.307 70.1267 271.307 69.0267C271.307 68.2267 271.04 67.56 270.507 67.0267C269.974 66.46 269.24 65.9767 268.307 65.5767C267.407 65.1433 265.957 64.56 263.957 63.8267C261.724 63.06 259.824 62.2767 258.257 61.4767C256.724 60.6767 255.424 59.5933 254.357 58.2267C253.324 56.8267 252.807 55.11 252.807 53.0767C252.807 51.0767 253.324 49.3267 254.357 47.8267C255.39 46.3267 256.824 45.1767 258.657 44.3767C260.49 43.5767 262.607 43.1767 265.007 43.1767C267.54 43.1767 269.79 43.6267 271.757 44.5267C273.757 45.4267 275.307 46.6933 276.407 48.3267C277.54 49.9267 278.107 51.7933 278.107 53.9267V54.6767C278.107 54.8433 278.04 54.9933 277.907 55.1267C277.807 55.2267 277.674 55.2767 277.507 55.2767H271.757C271.59 55.2767 271.44 55.2267 271.307 55.1267C271.207 54.9933 271.157 54.8433 271.157 54.6767V54.2767C271.157 52.8767 270.574 51.6933 269.407 50.7267C268.274 49.7267 266.707 49.2267 264.707 49.2267C263.14 49.2267 261.907 49.56 261.007 50.2267C260.14 50.8933 259.707 51.81 259.707 52.9767C259.707 53.81 259.957 54.51 260.457 55.0767C260.99 55.6433 261.757 56.16 262.757 56.6267C263.79 57.06 265.374 57.66 267.507 58.4267C269.874 59.2933 271.724 60.06 273.057 60.7267C274.424 61.3933 275.64 62.3933 276.707 63.7267C277.807 65.0267 278.357 66.7267 278.357 68.8267C278.357 71.96 277.207 74.4433 274.907 76.2767C272.607 78.0767 269.49 78.9767 265.557 78.9767ZM307.053 43.5767C307.22 43.5767 307.353 43.6433 307.453 43.7767C307.586 43.8767 307.653 44.01 307.653 44.1767V49.0767C307.653 49.2433 307.586 49.3933 307.453 49.5267C307.353 49.6267 307.22 49.6767 307.053 49.6767H298.103C297.936 49.6767 297.853 49.76 297.853 49.9267V77.9767C297.853 78.1433 297.786 78.2933 297.653 78.4267C297.553 78.5267 297.42 78.5767 297.253 78.5767H291.403C291.236 78.5767 291.086 78.5267 290.953 78.4267C290.853 78.2933 290.803 78.1433 290.803 77.9767V49.9267C290.803 49.76 290.72 49.6767 290.553 49.6767H281.853C281.686 49.6767 281.536 49.6267 281.403 49.5267C281.303 49.3933 281.253 49.2433 281.253 49.0767V44.1767C281.253 44.01 281.303 43.8767 281.403 43.7767C281.536 43.6433 281.686 43.5767 281.853 43.5767H307.053ZM330.751 44.1767C330.751 44.01 330.801 43.8767 330.901 43.7767C331.034 43.6433 331.184 43.5767 331.351 43.5767H337.201C337.368 43.5767 337.501 43.6433 337.601 43.7767C337.734 43.8767 337.801 44.01 337.801 44.1767V77.9767C337.801 78.1433 337.734 78.2933 337.601 78.4267C337.501 78.5267 337.368 78.5767 337.201 78.5767H331.351C331.184 78.5767 331.034 78.5267 330.901 78.4267C330.801 78.2933 330.751 78.1433 330.751 77.9767V64.1767C330.751 64.01 330.668 63.9267 330.501 63.9267H319.451C319.284 63.9267 319.201 64.01 319.201 64.1767V77.9767C319.201 78.1433 319.134 78.2933 319.001 78.4267C318.901 78.5267 318.768 78.5767 318.601 78.5767H312.751C312.584 78.5767 312.434 78.5267 312.301 78.4267C312.201 78.2933 312.151 78.1433 312.151 77.9767V44.1767C312.151 44.01 312.201 43.8767 312.301 43.7767C312.434 43.6433 312.584 43.5767 312.751 43.5767H318.601C318.768 43.5767 318.901 43.6433 319.001 43.7767C319.134 43.8767 319.201 44.01 319.201 44.1767V57.6267C319.201 57.7933 319.284 57.8767 319.451 57.8767H330.501C330.668 57.8767 330.751 57.7933 330.751 57.6267V44.1767ZM344.147 78.5767C343.981 78.5767 343.831 78.5267 343.697 78.4267C343.597 78.2933 343.547 78.1433 343.547 77.9767V44.1767C343.547 44.01 343.597 43.8767 343.697 43.7767C343.831 43.6433 343.981 43.5767 344.147 43.5767H349.997C350.164 43.5767 350.297 43.6433 350.397 43.7767C350.531 43.8767 350.597 44.01 350.597 44.1767V77.9767C350.597 78.1433 350.531 78.2933 350.397 78.4267C350.297 78.5267 350.164 78.5767 349.997 78.5767H344.147ZM357.282 78.5767C357.115 78.5767 356.965 78.5267 356.832 78.4267C356.732 78.2933 356.682 78.1433 356.682 77.9767V44.1767C356.682 44.01 356.732 43.8767 356.832 43.7767C356.965 43.6433 357.115 43.5767 357.282 43.5767H363.132C363.299 43.5767 363.432 43.6433 363.532 43.7767C363.665 43.8767 363.732 44.01 363.732 44.1767V58.1767C363.732 58.2767 363.765 58.3433 363.832 58.3767C363.899 58.3767 363.965 58.3433 364.032 58.2767L375.582 43.9267C375.782 43.6933 376.032 43.5767 376.332 43.5767H382.932C383.199 43.5767 383.365 43.66 383.432 43.8267C383.499 43.96 383.465 44.1267 383.332 44.3267L372.182 58.5767C372.082 58.71 372.065 58.8267 372.132 58.9267L383.932 77.8767C383.999 78.0767 384.032 78.1933 384.032 78.2267C384.032 78.46 383.865 78.5767 383.532 78.5767H376.932C376.599 78.5767 376.365 78.4433 376.232 78.1767L367.332 63.7767C367.299 63.71 367.249 63.6767 367.182 63.6767C367.115 63.6767 367.049 63.71 366.982 63.7767L363.832 67.7267C363.765 67.86 363.732 67.96 363.732 68.0267V77.9767C363.732 78.1433 363.665 78.2933 363.532 78.4267C363.432 78.5267 363.299 78.5767 363.132 78.5767H357.282Z" fill="black"/>
<path d="M165.675 120.2C164.425 120.2 163.325 119.958 162.375 119.475C161.425 118.975 160.692 118.283 160.175 117.4C159.658 116.517 159.4 115.492 159.4 114.325V108.15C159.4 106.983 159.658 105.958 160.175 105.075C160.692 104.192 161.425 103.508 162.375 103.025C163.325 102.542 164.425 102.3 165.675 102.3C166.908 102.3 168 102.533 168.95 103C169.9 103.467 170.633 104.125 171.15 104.975C171.667 105.825 171.925 106.808 171.925 107.925C171.925 108.008 171.892 108.083 171.825 108.15C171.775 108.2 171.708 108.225 171.625 108.225L169.325 108.35C169.125 108.35 169.025 108.258 169.025 108.075C169.025 107.092 168.717 106.3 168.1 105.7C167.5 105.1 166.692 104.8 165.675 104.8C164.658 104.8 163.842 105.1 163.225 105.7C162.608 106.3 162.3 107.092 162.3 108.075V114.45C162.3 115.417 162.608 116.2 163.225 116.8C163.842 117.4 164.658 117.7 165.675 117.7C166.692 117.7 167.5 117.408 168.1 116.825C168.717 116.225 169.025 115.433 169.025 114.45C169.025 114.267 169.125 114.175 169.325 114.175L171.625 114.275C171.708 114.275 171.775 114.3 171.825 114.35C171.892 114.4 171.925 114.458 171.925 114.525C171.925 115.658 171.667 116.658 171.15 117.525C170.633 118.375 169.9 119.033 168.95 119.5C168 119.967 166.908 120.2 165.675 120.2ZM184.56 102.8C184.56 102.717 184.585 102.65 184.635 102.6C184.702 102.533 184.777 102.5 184.86 102.5H187.16C187.243 102.5 187.31 102.533 187.36 102.6C187.427 102.65 187.46 102.717 187.46 102.8V119.7C187.46 119.783 187.427 119.858 187.36 119.925C187.31 119.975 187.243 120 187.16 120H184.86C184.777 120 184.702 119.975 184.635 119.925C184.585 119.858 184.56 119.783 184.56 119.7V112.55C184.56 112.467 184.518 112.425 184.435 112.425H178.06C177.977 112.425 177.935 112.467 177.935 112.55V119.7C177.935 119.783 177.902 119.858 177.835 119.925C177.785 119.975 177.718 120 177.635 120H175.335C175.252 120 175.177 119.975 175.11 119.925C175.06 119.858 175.035 119.783 175.035 119.7V102.8C175.035 102.717 175.06 102.65 175.11 102.6C175.177 102.533 175.252 102.5 175.335 102.5H177.635C177.718 102.5 177.785 102.533 177.835 102.6C177.902 102.65 177.935 102.717 177.935 102.8V109.8C177.935 109.883 177.977 109.925 178.06 109.925H184.435C184.518 109.925 184.56 109.883 184.56 109.8V102.8ZM201.901 120C201.734 120 201.626 119.917 201.576 119.75L200.751 117.075C200.717 117.008 200.676 116.975 200.626 116.975H194.026C193.976 116.975 193.934 117.008 193.901 117.075L193.076 119.75C193.026 119.917 192.917 120 192.751 120H190.251C190.151 120 190.076 119.975 190.026 119.925C189.976 119.858 189.967 119.767 190.001 119.65L195.426 102.75C195.476 102.583 195.584 102.5 195.751 102.5H198.876C199.042 102.5 199.151 102.583 199.201 102.75L204.651 119.65C204.667 119.683 204.676 119.725 204.676 119.775C204.676 119.925 204.584 120 204.401 120H201.901ZM194.676 114.55C194.659 114.65 194.692 114.7 194.776 114.7H199.851C199.951 114.7 199.984 114.65 199.951 114.55L197.376 106.175C197.359 106.108 197.334 106.075 197.301 106.075C197.267 106.075 197.242 106.108 197.226 106.175L194.676 114.55ZM217.087 120C216.92 120 216.803 119.925 216.737 119.775L213.437 112.575C213.403 112.508 213.353 112.475 213.287 112.475H210.287C210.203 112.475 210.162 112.517 210.162 112.6V119.7C210.162 119.783 210.128 119.858 210.062 119.925C210.012 119.975 209.945 120 209.862 120H207.562C207.478 120 207.403 119.975 207.337 119.925C207.287 119.858 207.262 119.783 207.262 119.7V102.8C207.262 102.717 207.287 102.65 207.337 102.6C207.403 102.533 207.478 102.5 207.562 102.5H214.437C215.453 102.5 216.353 102.717 217.137 103.15C217.92 103.567 218.528 104.167 218.962 104.95C219.395 105.717 219.612 106.6 219.612 107.6C219.612 108.75 219.312 109.733 218.712 110.55C218.128 111.35 217.312 111.908 216.262 112.225C216.228 112.225 216.203 112.242 216.187 112.275C216.17 112.308 216.17 112.342 216.187 112.375L219.712 119.65C219.745 119.717 219.762 119.767 219.762 119.8C219.762 119.933 219.67 120 219.487 120H217.087ZM210.287 105C210.203 105 210.162 105.042 210.162 105.125V110.1C210.162 110.183 210.203 110.225 210.287 110.225H214.037C214.837 110.225 215.478 109.992 215.962 109.525C216.462 109.042 216.712 108.408 216.712 107.625C216.712 106.842 216.462 106.208 215.962 105.725C215.478 105.242 214.837 105 214.037 105H210.287ZM222.894 120C222.81 120 222.735 119.975 222.669 119.925C222.619 119.858 222.594 119.783 222.594 119.7V102.8C222.594 102.717 222.619 102.65 222.669 102.6C222.735 102.533 222.81 102.5 222.894 102.5H225.194C225.277 102.5 225.344 102.533 225.394 102.6C225.46 102.65 225.494 102.717 225.494 102.8V119.7C225.494 119.783 225.46 119.858 225.394 119.925C225.344 119.975 225.277 120 225.194 120H222.894ZM240.637 102.5C240.72 102.5 240.787 102.533 240.837 102.6C240.903 102.65 240.937 102.717 240.937 102.8V104.725C240.937 104.808 240.903 104.883 240.837 104.95C240.787 105 240.72 105.025 240.637 105.025H236.037C235.953 105.025 235.912 105.067 235.912 105.15V119.7C235.912 119.783 235.878 119.858 235.812 119.925C235.762 119.975 235.695 120 235.612 120H233.312C233.228 120 233.153 119.975 233.087 119.925C233.037 119.858 233.012 119.783 233.012 119.7V105.15C233.012 105.067 232.97 105.025 232.887 105.025H228.462C228.378 105.025 228.303 105 228.237 104.95C228.187 104.883 228.162 104.808 228.162 104.725V102.8C228.162 102.717 228.187 102.65 228.237 102.6C228.303 102.533 228.378 102.5 228.462 102.5H240.637ZM252.95 120C252.784 120 252.675 119.917 252.625 119.75L251.8 117.075C251.767 117.008 251.725 116.975 251.675 116.975H245.075C245.025 116.975 244.984 117.008 244.95 117.075L244.125 119.75C244.075 119.917 243.967 120 243.8 120H241.3C241.2 120 241.125 119.975 241.075 119.925C241.025 119.858 241.017 119.767 241.05 119.65L246.475 102.75C246.525 102.583 246.634 102.5 246.8 102.5H249.925C250.092 102.5 250.2 102.583 250.25 102.75L255.7 119.65C255.717 119.683 255.725 119.725 255.725 119.775C255.725 119.925 255.634 120 255.45 120H252.95ZM245.725 114.55C245.709 114.65 245.742 114.7 245.825 114.7H250.9C251 114.7 251.034 114.65 251 114.55L248.425 106.175C248.409 106.108 248.384 106.075 248.35 106.075C248.317 106.075 248.292 106.108 248.275 106.175L245.725 114.55ZM268.086 110.875C267.986 110.925 267.986 110.975 268.086 111.025C269.786 111.825 270.636 113.2 270.636 115.15C270.636 116.733 270.103 117.942 269.036 118.775C267.986 119.592 266.611 120 264.911 120H258.611C258.528 120 258.453 119.975 258.386 119.925C258.336 119.858 258.311 119.783 258.311 119.7V102.8C258.311 102.717 258.336 102.65 258.386 102.6C258.453 102.533 258.528 102.5 258.611 102.5H264.711C266.528 102.5 267.928 102.892 268.911 103.675C269.895 104.458 270.386 105.642 270.386 107.225C270.386 108.975 269.62 110.192 268.086 110.875ZM261.336 105C261.253 105 261.211 105.042 261.211 105.125V109.75C261.211 109.833 261.253 109.875 261.336 109.875H264.711C265.595 109.875 266.286 109.667 266.786 109.25C267.303 108.817 267.561 108.225 267.561 107.475C267.561 106.708 267.303 106.108 266.786 105.675C266.286 105.225 265.595 105 264.711 105H261.336ZM264.911 117.475C265.778 117.475 266.461 117.242 266.961 116.775C267.478 116.308 267.736 115.675 267.736 114.875C267.736 114.058 267.478 113.425 266.961 112.975C266.445 112.508 265.745 112.275 264.861 112.275H261.336C261.253 112.275 261.211 112.317 261.211 112.4V117.35C261.211 117.433 261.253 117.475 261.336 117.475H264.911ZM274.163 120C274.08 120 274.005 119.975 273.938 119.925C273.888 119.858 273.863 119.783 273.863 119.7V102.8C273.863 102.717 273.888 102.65 273.938 102.6C274.005 102.533 274.08 102.5 274.163 102.5H276.463C276.546 102.5 276.613 102.533 276.663 102.6C276.73 102.65 276.763 102.717 276.763 102.8V117.375C276.763 117.458 276.805 117.5 276.888 117.5H285.263C285.346 117.5 285.413 117.533 285.463 117.6C285.53 117.65 285.563 117.717 285.563 117.8V119.7C285.563 119.783 285.53 119.858 285.463 119.925C285.413 119.975 285.346 120 285.263 120H274.163ZM299.995 104.7C299.995 104.783 299.962 104.858 299.895 104.925C299.845 104.975 299.779 105 299.695 105H291.17C291.087 105 291.045 105.042 291.045 105.125V109.8C291.045 109.883 291.087 109.925 291.17 109.925H296.895C296.979 109.925 297.045 109.958 297.095 110.025C297.162 110.075 297.195 110.142 297.195 110.225V112.125C297.195 112.208 297.162 112.283 297.095 112.35C297.045 112.4 296.979 112.425 296.895 112.425H291.17C291.087 112.425 291.045 112.467 291.045 112.55V117.375C291.045 117.458 291.087 117.5 291.17 117.5H299.695C299.779 117.5 299.845 117.533 299.895 117.6C299.962 117.65 299.995 117.717 299.995 117.8V119.7C299.995 119.783 299.962 119.858 299.895 119.925C299.845 119.975 299.779 120 299.695 120H288.445C288.362 120 288.287 119.975 288.22 119.925C288.17 119.858 288.145 119.783 288.145 119.7V102.8C288.145 102.717 288.17 102.65 288.22 102.6C288.287 102.533 288.362 102.5 288.445 102.5H299.695C299.779 102.5 299.845 102.533 299.895 102.6C299.962 102.65 299.995 102.717 299.995 102.8V104.7ZM319.445 102.5C319.528 102.5 319.595 102.533 319.645 102.6C319.712 102.65 319.745 102.717 319.745 102.8V104.725C319.745 104.808 319.712 104.883 319.645 104.95C319.595 105 319.528 105.025 319.445 105.025H314.845C314.762 105.025 314.72 105.067 314.72 105.15V119.7C314.72 119.783 314.687 119.858 314.62 119.925C314.57 119.975 314.503 120 314.42 120H312.12C312.037 120 311.962 119.975 311.895 119.925C311.845 119.858 311.82 119.783 311.82 119.7V105.15C311.82 105.067 311.778 105.025 311.695 105.025H307.27C307.187 105.025 307.112 105 307.045 104.95C306.995 104.883 306.97 104.808 306.97 104.725V102.8C306.97 102.717 306.995 102.65 307.045 102.6C307.112 102.533 307.187 102.5 307.27 102.5H319.445ZM332.248 120C332.081 120 331.964 119.925 331.898 119.775L328.598 112.575C328.564 112.508 328.514 112.475 328.448 112.475H325.448C325.364 112.475 325.323 112.517 325.323 112.6V119.7C325.323 119.783 325.289 119.858 325.223 119.925C325.173 119.975 325.106 120 325.023 120H322.723C322.639 120 322.564 119.975 322.498 119.925C322.448 119.858 322.423 119.783 322.423 119.7V102.8C322.423 102.717 322.448 102.65 322.498 102.6C322.564 102.533 322.639 102.5 322.723 102.5H329.598C330.614 102.5 331.514 102.717 332.298 103.15C333.081 103.567 333.689 104.167 334.123 104.95C334.556 105.717 334.773 106.6 334.773 107.6C334.773 108.75 334.473 109.733 333.873 110.55C333.289 111.35 332.473 111.908 331.423 112.225C331.389 112.225 331.364 112.242 331.348 112.275C331.331 112.308 331.331 112.342 331.348 112.375L334.873 119.65C334.906 119.717 334.923 119.767 334.923 119.8C334.923 119.933 334.831 120 334.648 120H332.248ZM325.448 105C325.364 105 325.323 105.042 325.323 105.125V110.1C325.323 110.183 325.364 110.225 325.448 110.225H329.198C329.998 110.225 330.639 109.992 331.123 109.525C331.623 109.042 331.873 108.408 331.873 107.625C331.873 106.842 331.623 106.208 331.123 105.725C330.639 105.242 329.998 105 329.198 105H325.448ZM343.88 120.2C342.646 120.2 341.555 119.958 340.605 119.475C339.655 118.992 338.913 118.308 338.38 117.425C337.863 116.525 337.605 115.492 337.605 114.325V102.8C337.605 102.717 337.63 102.65 337.68 102.6C337.746 102.533 337.821 102.5 337.905 102.5H340.205C340.288 102.5 340.355 102.533 340.405 102.6C340.471 102.65 340.505 102.717 340.505 102.8V114.375C340.505 115.358 340.813 116.158 341.43 116.775C342.046 117.392 342.863 117.7 343.88 117.7C344.896 117.7 345.713 117.392 346.33 116.775C346.946 116.158 347.255 115.358 347.255 114.375V102.8C347.255 102.717 347.28 102.65 347.33 102.6C347.396 102.533 347.471 102.5 347.555 102.5H349.855C349.938 102.5 350.005 102.533 350.055 102.6C350.121 102.65 350.155 102.717 350.155 102.8V114.325C350.155 115.492 349.896 116.525 349.38 117.425C348.863 118.308 348.13 118.992 347.18 119.475C346.23 119.958 345.13 120.2 343.88 120.2ZM359.298 120.2C357.998 120.2 356.865 119.992 355.898 119.575C354.932 119.158 354.182 118.575 353.648 117.825C353.132 117.075 352.873 116.192 352.873 115.175V114.55C352.873 114.467 352.898 114.4 352.948 114.35C353.015 114.283 353.09 114.25 353.173 114.25H355.398C355.482 114.25 355.548 114.283 355.598 114.35C355.665 114.4 355.698 114.467 355.698 114.55V115.025C355.698 115.792 356.04 116.433 356.723 116.95C357.407 117.45 358.34 117.7 359.523 117.7C360.54 117.7 361.307 117.483 361.823 117.05C362.34 116.617 362.598 116.058 362.598 115.375C362.598 114.908 362.457 114.517 362.173 114.2C361.89 113.867 361.482 113.567 360.948 113.3C360.432 113.033 359.648 112.7 358.598 112.3C357.415 111.867 356.457 111.458 355.723 111.075C354.99 110.692 354.373 110.175 353.873 109.525C353.39 108.858 353.148 108.033 353.148 107.05C353.148 105.583 353.682 104.425 354.748 103.575C355.815 102.725 357.24 102.3 359.023 102.3C360.273 102.3 361.373 102.517 362.323 102.95C363.29 103.383 364.04 103.992 364.573 104.775C365.107 105.542 365.373 106.433 365.373 107.45V107.875C365.373 107.958 365.34 108.033 365.273 108.1C365.223 108.15 365.157 108.175 365.073 108.175H362.823C362.74 108.175 362.665 108.15 362.598 108.1C362.548 108.033 362.523 107.958 362.523 107.875V107.6C362.523 106.817 362.198 106.158 361.548 105.625C360.915 105.075 360.032 104.8 358.898 104.8C357.982 104.8 357.265 104.992 356.748 105.375C356.248 105.758 355.998 106.3 355.998 107C355.998 107.5 356.132 107.908 356.398 108.225C356.665 108.542 357.065 108.833 357.598 109.1C358.132 109.35 358.957 109.675 360.073 110.075C361.257 110.525 362.198 110.933 362.898 111.3C363.615 111.667 364.223 112.183 364.723 112.85C365.24 113.5 365.498 114.317 365.498 115.3C365.498 116.8 364.94 117.992 363.823 118.875C362.723 119.758 361.215 120.2 359.298 120.2ZM379.601 102.5C379.685 102.5 379.751 102.533 379.801 102.6C379.868 102.65 379.901 102.717 379.901 102.8V104.725C379.901 104.808 379.868 104.883 379.801 104.95C379.751 105 379.685 105.025 379.601 105.025H375.001C374.918 105.025 374.876 105.067 374.876 105.15V119.7C374.876 119.783 374.843 119.858 374.776 119.925C374.726 119.975 374.66 120 374.576 120H372.276C372.193 120 372.118 119.975 372.051 119.925C372.001 119.858 371.976 119.783 371.976 119.7V105.15C371.976 105.067 371.935 105.025 371.851 105.025H367.426C367.343 105.025 367.268 105 367.201 104.95C367.151 104.883 367.126 104.808 367.126 104.725V102.8C367.126 102.717 367.151 102.65 367.201 102.6C367.268 102.533 367.343 102.5 367.426 102.5H379.601Z" fill="black"/>
</svg>
