<svg width="242" height="81" viewBox="0 0 242 81" fill="none" xmlns="http://www.w3.org/2000/svg">
<path d="M70.2074 49.4694L42.2589 77.5003V71.535L63.6245 49.4694L43.587 25.6663V18.369L70.2074 49.4694Z" fill="#EB9309"/>
<path d="M8.82466 35.5698L29.9593 13.0408V6.20684L2.01077 35.5698L28.6311 65.8014V58.7358L8.82466 35.5698Z" fill="#EB9309"/>
<path d="M42.2589 4.70105L15.4076 33.1373H22.0482L42.2589 11.7667L62.5273 34.701H69.1103L42.2589 4.70105Z" fill="#7FB432"/>
<path d="M40.7575 49.2377H31.0564V64.4694L40.7575 53.6393V49.2377Z" fill="#EB9309"/>
<path d="M41.0463 18.369L30.8832 28.9095V34.2377H41.0463V18.369Z" fill="#EB9309"/>
<path d="M3.56988 49.4694L29.9593 79.701L57.4458 49.4694H50.6319L29.9593 71.535L10.1528 49.4694H3.56988Z" fill="#7FB432"/>
<path d="M47.3405 35.5698L56.1177 47.9057H25.3397L15.4076 35.5698H30.6522H47.3405Z" fill="#7FB432"/>
<path d="M70.2074 49.4694L42.2589 77.5003V71.535L63.6245 49.4694L43.587 25.6663V18.369L70.2074 49.4694Z" stroke="black" stroke-opacity="0.01"/>
<path d="M8.82466 35.5698L29.9593 13.0408V6.20684L2.01077 35.5698L28.6311 65.8014V58.7358L8.82466 35.5698Z" stroke="black" stroke-opacity="0.01"/>
<path d="M42.2589 4.70105L15.4076 33.1373H22.0482L42.2589 11.7667L62.5273 34.701H69.1103L42.2589 4.70105Z" stroke="black" stroke-opacity="0.01"/>
<path d="M40.7575 49.2377H31.0564V64.4694L40.7575 53.6393V49.2377Z" stroke="black" stroke-opacity="0.01"/>
<path d="M41.0463 18.369L30.8832 28.9095V34.2377H41.0463V18.369Z" stroke="black" stroke-opacity="0.01"/>
<path d="M3.56988 49.4694L29.9593 79.701L57.4458 49.4694H50.6319L29.9593 71.535L10.1528 49.4694H3.56988Z" stroke="black" stroke-opacity="0.01"/>
<path d="M47.3405 35.5698L56.1177 47.9057H25.3397L15.4076 35.5698H30.6522H47.3405Z" stroke="black" stroke-opacity="0.01"/>
<path d="M87.9744 45.9455C86.1077 45.9455 84.4744 45.6539 83.0744 45.0705C81.6744 44.4639 80.5894 43.6122 79.8194 42.5155C79.0727 41.3955 78.6994 40.1005 78.6994 38.6305V37.8605C78.6994 37.7439 78.7344 37.6505 78.8044 37.5805C78.8977 37.4872 79.0027 37.4405 79.1194 37.4405H83.1094C83.2261 37.4405 83.3194 37.4872 83.3894 37.5805C83.4827 37.6505 83.5294 37.7439 83.5294 37.8605V38.3855C83.5294 39.3189 83.9611 40.1122 84.8244 40.7655C85.6877 41.3955 86.8544 41.7105 88.3244 41.7105C89.5611 41.7105 90.4827 41.4539 91.0894 40.9405C91.6961 40.4039 91.9994 39.7505 91.9994 38.9805C91.9994 38.4205 91.8127 37.9539 91.4394 37.5805C91.0661 37.1839 90.5527 36.8455 89.8994 36.5655C89.2694 36.2622 88.2544 35.8539 86.8544 35.3405C85.2911 34.8039 83.9611 34.2555 82.8644 33.6955C81.7911 33.1355 80.8811 32.3772 80.1344 31.4205C79.4111 30.4405 79.0494 29.2389 79.0494 27.8155C79.0494 26.4155 79.4111 25.1905 80.1344 24.1405C80.8577 23.0905 81.8611 22.2855 83.1444 21.7255C84.4277 21.1655 85.9094 20.8855 87.5894 20.8855C89.3627 20.8855 90.9377 21.2005 92.3144 21.8305C93.7144 22.4605 94.7994 23.3472 95.5694 24.4905C96.3627 25.6105 96.7594 26.9172 96.7594 28.4105V28.9355C96.7594 29.0522 96.7127 29.1572 96.6194 29.2505C96.5494 29.3205 96.4561 29.3555 96.3394 29.3555H92.3144C92.1977 29.3555 92.0927 29.3205 91.9994 29.2505C91.9294 29.1572 91.8944 29.0522 91.8944 28.9355V28.6555C91.8944 27.6755 91.4861 26.8472 90.6694 26.1705C89.8761 25.4705 88.7794 25.1205 87.3794 25.1205C86.2827 25.1205 85.4194 25.3539 84.7894 25.8205C84.1827 26.2872 83.8794 26.9289 83.8794 27.7455C83.8794 28.3289 84.0544 28.8189 84.4044 29.2155C84.7777 29.6122 85.3144 29.9739 86.0144 30.3005C86.7377 30.6039 87.8461 31.0239 89.3394 31.5605C90.9961 32.1672 92.2911 32.7039 93.2244 33.1705C94.1811 33.6372 95.0327 34.3372 95.7794 35.2705C96.5494 36.1805 96.9344 37.3705 96.9344 38.8405C96.9344 41.0339 96.1294 42.7722 94.5194 44.0555C92.9094 45.3155 90.7277 45.9455 87.9744 45.9455ZM105.063 45.6655C104.806 45.6655 104.643 45.5489 104.573 45.3155L98.3779 21.6205L98.3429 21.4805C98.3429 21.2705 98.4712 21.1655 98.7279 21.1655H103.068C103.301 21.1655 103.453 21.2822 103.523 21.5155L106.848 35.7605C106.871 35.8539 106.906 35.9005 106.953 35.9005C107 35.9005 107.035 35.8539 107.058 35.7605L110.278 21.5505C110.348 21.2939 110.5 21.1655 110.733 21.1655H114.968C115.225 21.1655 115.388 21.2822 115.458 21.5155L118.958 35.7605C118.981 35.8305 119.016 35.8772 119.063 35.9005C119.11 35.9005 119.145 35.8539 119.168 35.7605L122.388 21.5505C122.458 21.2939 122.61 21.1655 122.843 21.1655H126.973C127.3 21.1655 127.428 21.3172 127.358 21.6205L121.618 45.3155C121.548 45.5489 121.385 45.6655 121.128 45.6655H116.963C116.73 45.6655 116.578 45.5489 116.508 45.3155L112.938 30.1605C112.915 30.0672 112.88 30.0205 112.833 30.0205C112.786 30.0205 112.751 30.0672 112.728 30.1605L109.403 45.2805C109.356 45.5372 109.205 45.6655 108.948 45.6655H105.063ZM142.386 45.6655C142.152 45.6655 142.001 45.5489 141.931 45.3155L140.881 41.8855C140.834 41.7922 140.776 41.7455 140.706 41.7455H132.096C132.026 41.7455 131.967 41.7922 131.921 41.8855L130.906 45.3155C130.836 45.5489 130.684 45.6655 130.451 45.6655H126.006C125.866 45.6655 125.761 45.6305 125.691 45.5605C125.621 45.4672 125.609 45.3389 125.656 45.1755L133.216 21.5155C133.286 21.2822 133.437 21.1655 133.671 21.1655H139.166C139.399 21.1655 139.551 21.2822 139.621 21.5155L147.181 45.1755C147.204 45.2222 147.216 45.2805 147.216 45.3505C147.216 45.5605 147.087 45.6655 146.831 45.6655H142.386ZM133.181 37.7205C133.157 37.8605 133.204 37.9305 133.321 37.9305H139.481C139.621 37.9305 139.667 37.8605 139.621 37.7205L136.471 27.3255C136.447 27.2322 136.412 27.1972 136.366 27.2205C136.319 27.2205 136.284 27.2555 136.261 27.3255L133.181 37.7205ZM157.154 45.9455C155.287 45.9455 153.654 45.6539 152.254 45.0705C150.854 44.4639 149.769 43.6122 148.999 42.5155C148.252 41.3955 147.879 40.1005 147.879 38.6305V37.8605C147.879 37.7439 147.914 37.6505 147.984 37.5805C148.077 37.4872 148.182 37.4405 148.299 37.4405H152.289C152.406 37.4405 152.499 37.4872 152.569 37.5805C152.662 37.6505 152.709 37.7439 152.709 37.8605V38.3855C152.709 39.3189 153.141 40.1122 154.004 40.7655C154.867 41.3955 156.034 41.7105 157.504 41.7105C158.741 41.7105 159.662 41.4539 160.269 40.9405C160.876 40.4039 161.179 39.7505 161.179 38.9805C161.179 38.4205 160.992 37.9539 160.619 37.5805C160.246 37.1839 159.732 36.8455 159.079 36.5655C158.449 36.2622 157.434 35.8539 156.034 35.3405C154.471 34.8039 153.141 34.2555 152.044 33.6955C150.971 33.1355 150.061 32.3772 149.314 31.4205C148.591 30.4405 148.229 29.2389 148.229 27.8155C148.229 26.4155 148.591 25.1905 149.314 24.1405C150.037 23.0905 151.041 22.2855 152.324 21.7255C153.607 21.1655 155.089 20.8855 156.769 20.8855C158.542 20.8855 160.117 21.2005 161.494 21.8305C162.894 22.4605 163.979 23.3472 164.749 24.4905C165.542 25.6105 165.939 26.9172 165.939 28.4105V28.9355C165.939 29.0522 165.892 29.1572 165.799 29.2505C165.729 29.3205 165.636 29.3555 165.519 29.3555H161.494C161.377 29.3555 161.272 29.3205 161.179 29.2505C161.109 29.1572 161.074 29.0522 161.074 28.9355V28.6555C161.074 27.6755 160.666 26.8472 159.849 26.1705C159.056 25.4705 157.959 25.1205 156.559 25.1205C155.462 25.1205 154.599 25.3539 153.969 25.8205C153.362 26.2872 153.059 26.9289 153.059 27.7455C153.059 28.3289 153.234 28.8189 153.584 29.2155C153.957 29.6122 154.494 29.9739 155.194 30.3005C155.917 30.6039 157.026 31.0239 158.519 31.5605C160.176 32.1672 161.471 32.7039 162.404 33.1705C163.361 33.6372 164.212 34.3372 164.959 35.2705C165.729 36.1805 166.114 37.3705 166.114 38.8405C166.114 41.0339 165.309 42.7722 163.699 44.0555C162.089 45.3155 159.907 45.9455 157.154 45.9455ZM186.201 21.1655C186.318 21.1655 186.411 21.2122 186.481 21.3055C186.574 21.3755 186.621 21.4689 186.621 21.5855V25.0155C186.621 25.1322 186.574 25.2372 186.481 25.3305C186.411 25.4005 186.318 25.4355 186.201 25.4355H179.936C179.819 25.4355 179.761 25.4939 179.761 25.6105V45.2455C179.761 45.3622 179.714 45.4672 179.621 45.5605C179.551 45.6305 179.458 45.6655 179.341 45.6655H175.246C175.129 45.6655 175.024 45.6305 174.931 45.5605C174.861 45.4672 174.826 45.3622 174.826 45.2455V25.6105C174.826 25.4939 174.768 25.4355 174.651 25.4355H168.561C168.444 25.4355 168.339 25.4005 168.246 25.3305C168.176 25.2372 168.141 25.1322 168.141 25.0155V21.5855C168.141 21.4689 168.176 21.3755 168.246 21.3055C168.339 21.2122 168.444 21.1655 168.561 21.1655H186.201ZM202.79 21.5855C202.79 21.4689 202.825 21.3755 202.895 21.3055C202.988 21.2122 203.093 21.1655 203.21 21.1655H207.305C207.421 21.1655 207.515 21.2122 207.585 21.3055C207.678 21.3755 207.725 21.4689 207.725 21.5855V45.2455C207.725 45.3622 207.678 45.4672 207.585 45.5605C207.515 45.6305 207.421 45.6655 207.305 45.6655H203.21C203.093 45.6655 202.988 45.6305 202.895 45.5605C202.825 45.4672 202.79 45.3622 202.79 45.2455V35.5855C202.79 35.4689 202.731 35.4105 202.615 35.4105H194.88C194.763 35.4105 194.705 35.4689 194.705 35.5855V45.2455C194.705 45.3622 194.658 45.4672 194.565 45.5605C194.495 45.6305 194.401 45.6655 194.285 45.6655H190.19C190.073 45.6655 189.968 45.6305 189.875 45.5605C189.805 45.4672 189.77 45.3622 189.77 45.2455V21.5855C189.77 21.4689 189.805 21.3755 189.875 21.3055C189.968 21.2122 190.073 21.1655 190.19 21.1655H194.285C194.401 21.1655 194.495 21.2122 194.565 21.3055C194.658 21.3755 194.705 21.4689 194.705 21.5855V31.0005C194.705 31.1172 194.763 31.1755 194.88 31.1755H202.615C202.731 31.1755 202.79 31.1172 202.79 31.0005V21.5855ZM212.167 45.6655C212.051 45.6655 211.946 45.6305 211.852 45.5605C211.782 45.4672 211.747 45.3622 211.747 45.2455V21.5855C211.747 21.4689 211.782 21.3755 211.852 21.3055C211.946 21.2122 212.051 21.1655 212.167 21.1655H216.262C216.379 21.1655 216.472 21.2122 216.542 21.3055C216.636 21.3755 216.682 21.4689 216.682 21.5855V45.2455C216.682 45.3622 216.636 45.4672 216.542 45.5605C216.472 45.6305 216.379 45.6655 216.262 45.6655H212.167ZM221.362 45.6655C221.245 45.6655 221.14 45.6305 221.047 45.5605C220.977 45.4672 220.942 45.3622 220.942 45.2455V21.5855C220.942 21.4689 220.977 21.3755 221.047 21.3055C221.14 21.2122 221.245 21.1655 221.362 21.1655H225.457C225.573 21.1655 225.667 21.2122 225.737 21.3055C225.83 21.3755 225.877 21.4689 225.877 21.5855V31.3855C225.877 31.4555 225.9 31.5022 225.947 31.5255C225.993 31.5255 226.04 31.5022 226.087 31.4555L234.172 21.4105C234.312 21.2472 234.487 21.1655 234.697 21.1655H239.317C239.503 21.1655 239.62 21.2239 239.667 21.3405C239.713 21.4339 239.69 21.5505 239.597 21.6905L231.792 31.6655C231.722 31.7589 231.71 31.8405 231.757 31.9105L240.017 45.1755C240.063 45.3155 240.087 45.3972 240.087 45.4205C240.087 45.5839 239.97 45.6655 239.737 45.6655H235.117C234.883 45.6655 234.72 45.5722 234.627 45.3855L228.397 35.3055C228.373 35.2589 228.338 35.2355 228.292 35.2355C228.245 35.2355 228.198 35.2589 228.152 35.3055L225.947 38.0705C225.9 38.1639 225.877 38.2339 225.877 38.2805V45.2455C225.877 45.3622 225.83 45.4672 225.737 45.5605C225.667 45.6305 225.573 45.6655 225.457 45.6655H221.362Z" fill="black"/>
<path d="M89.219 65.136C88.369 65.136 87.621 64.9717 86.975 64.643C86.329 64.303 85.8303 63.8327 85.479 63.232C85.1277 62.6313 84.952 61.9343 84.952 61.141V56.942C84.952 56.1487 85.1277 55.4517 85.479 54.851C85.8303 54.2503 86.329 53.7857 86.975 53.457C87.621 53.1283 88.369 52.964 89.219 52.964C90.0577 52.964 90.8 53.1227 91.446 53.44C92.092 53.7573 92.5907 54.205 92.942 54.783C93.2933 55.361 93.469 56.0297 93.469 56.789C93.469 56.8457 93.4463 56.8967 93.401 56.942C93.367 56.976 93.3217 56.993 93.265 56.993L91.701 57.078C91.565 57.078 91.497 57.0157 91.497 56.891C91.497 56.2223 91.2873 55.684 90.868 55.276C90.46 54.868 89.9103 54.664 89.219 54.664C88.5277 54.664 87.9723 54.868 87.553 55.276C87.1337 55.684 86.924 56.2223 86.924 56.891V61.226C86.924 61.8833 87.1337 62.416 87.553 62.824C87.9723 63.232 88.5277 63.436 89.219 63.436C89.9103 63.436 90.46 63.2377 90.868 62.841C91.2873 62.433 91.497 61.8947 91.497 61.226C91.497 61.1013 91.565 61.039 91.701 61.039L93.265 61.107C93.3217 61.107 93.367 61.124 93.401 61.158C93.4463 61.192 93.469 61.2317 93.469 61.277C93.469 62.0477 93.2933 62.7277 92.942 63.317C92.5907 63.895 92.092 64.3427 91.446 64.66C90.8 64.9773 90.0577 65.136 89.219 65.136ZM102.061 53.304C102.061 53.2473 102.078 53.202 102.112 53.168C102.157 53.1227 102.208 53.1 102.265 53.1H103.829C103.885 53.1 103.931 53.1227 103.965 53.168C104.01 53.202 104.033 53.2473 104.033 53.304V64.796C104.033 64.8527 104.01 64.9037 103.965 64.949C103.931 64.983 103.885 65 103.829 65H102.265C102.208 65 102.157 64.983 102.112 64.949C102.078 64.9037 102.061 64.8527 102.061 64.796V59.934C102.061 59.8773 102.032 59.849 101.976 59.849H97.6408C97.5841 59.849 97.5558 59.8773 97.5558 59.934V64.796C97.5558 64.8527 97.5331 64.9037 97.4878 64.949C97.4538 64.983 97.4084 65 97.3518 65H95.7878C95.7311 65 95.6801 64.983 95.6348 64.949C95.6008 64.9037 95.5838 64.8527 95.5838 64.796V53.304C95.5838 53.2473 95.6008 53.202 95.6348 53.168C95.6801 53.1227 95.7311 53.1 95.7878 53.1H97.3518C97.4084 53.1 97.4538 53.1227 97.4878 53.168C97.5331 53.202 97.5558 53.2473 97.5558 53.304V58.064C97.5558 58.1207 97.5841 58.149 97.6408 58.149H101.976C102.032 58.149 102.061 58.1207 102.061 58.064V53.304ZM113.852 65C113.739 65 113.665 64.9433 113.631 64.83L113.07 63.011C113.048 62.9657 113.019 62.943 112.985 62.943H108.497C108.463 62.943 108.435 62.9657 108.412 63.011L107.851 64.83C107.817 64.9433 107.744 65 107.63 65H105.93C105.862 65 105.811 64.983 105.777 64.949C105.743 64.9037 105.738 64.8413 105.76 64.762L109.449 53.27C109.483 53.1567 109.557 53.1 109.67 53.1H111.795C111.909 53.1 111.982 53.1567 112.016 53.27L115.722 64.762C115.734 64.7847 115.739 64.813 115.739 64.847C115.739 64.949 115.677 65 115.552 65H113.852ZM108.939 61.294C108.928 61.362 108.951 61.396 109.007 61.396H112.458C112.526 61.396 112.549 61.362 112.526 61.294L110.775 55.599C110.764 55.5537 110.747 55.531 110.724 55.531C110.702 55.531 110.685 55.5537 110.673 55.599L108.939 61.294ZM124.179 65C124.066 65 123.986 64.949 123.941 64.847L121.697 59.951C121.674 59.9057 121.64 59.883 121.595 59.883H119.555C119.498 59.883 119.47 59.9113 119.47 59.968V64.796C119.47 64.8527 119.447 64.9037 119.402 64.949C119.368 64.983 119.323 65 119.266 65H117.702C117.645 65 117.594 64.983 117.549 64.949C117.515 64.9037 117.498 64.8527 117.498 64.796V53.304C117.498 53.2473 117.515 53.202 117.549 53.168C117.594 53.1227 117.645 53.1 117.702 53.1H122.377C123.068 53.1 123.68 53.2473 124.213 53.542C124.746 53.8253 125.159 54.2333 125.454 54.766C125.749 55.2873 125.896 55.888 125.896 56.568C125.896 57.35 125.692 58.0187 125.284 58.574C124.887 59.118 124.332 59.4977 123.618 59.713C123.595 59.713 123.578 59.7243 123.567 59.747C123.556 59.7697 123.556 59.7923 123.567 59.815L125.964 64.762C125.987 64.8073 125.998 64.8413 125.998 64.864C125.998 64.9547 125.936 65 125.811 65H124.179ZM119.555 54.8C119.498 54.8 119.47 54.8283 119.47 54.885V58.268C119.47 58.3247 119.498 58.353 119.555 58.353H122.105C122.649 58.353 123.085 58.1943 123.414 57.877C123.754 57.5483 123.924 57.1177 123.924 56.585C123.924 56.0523 123.754 55.6217 123.414 55.293C123.085 54.9643 122.649 54.8 122.105 54.8H119.555ZM128.128 65C128.071 65 128.02 64.983 127.975 64.949C127.941 64.9037 127.924 64.8527 127.924 64.796V53.304C127.924 53.2473 127.941 53.202 127.975 53.168C128.02 53.1227 128.071 53.1 128.128 53.1H129.692C129.748 53.1 129.794 53.1227 129.828 53.168C129.873 53.202 129.896 53.2473 129.896 53.304V64.796C129.896 64.8527 129.873 64.9037 129.828 64.949C129.794 64.983 129.748 65 129.692 65H128.128ZM140.193 53.1C140.25 53.1 140.295 53.1227 140.329 53.168C140.374 53.202 140.397 53.2473 140.397 53.304V54.613C140.397 54.6697 140.374 54.7207 140.329 54.766C140.295 54.8 140.25 54.817 140.193 54.817H137.065C137.008 54.817 136.98 54.8453 136.98 54.902V64.796C136.98 64.8527 136.957 64.9037 136.912 64.949C136.878 64.983 136.833 65 136.776 65H135.212C135.155 65 135.104 64.983 135.059 64.949C135.025 64.9037 135.008 64.8527 135.008 64.796V54.902C135.008 54.8453 134.98 54.817 134.923 54.817H131.914C131.857 54.817 131.806 54.8 131.761 54.766C131.727 54.7207 131.71 54.6697 131.71 54.613V53.304C131.71 53.2473 131.727 53.202 131.761 53.168C131.806 53.1227 131.857 53.1 131.914 53.1H140.193ZM148.566 65C148.453 65 148.379 64.9433 148.345 64.83L147.784 63.011C147.762 62.9657 147.733 62.943 147.699 62.943H143.211C143.177 62.943 143.149 62.9657 143.126 63.011L142.565 64.83C142.531 64.9433 142.458 65 142.344 65H140.644C140.576 65 140.525 64.983 140.491 64.949C140.457 64.9037 140.452 64.8413 140.474 64.762L144.163 53.27C144.197 53.1567 144.271 53.1 144.384 53.1H146.509C146.623 53.1 146.696 53.1567 146.73 53.27L150.436 64.762C150.448 64.7847 150.453 64.813 150.453 64.847C150.453 64.949 150.391 65 150.266 65H148.566ZM143.653 61.294C143.642 61.362 143.665 61.396 143.721 61.396H147.172C147.24 61.396 147.263 61.362 147.24 61.294L145.489 55.599C145.478 55.5537 145.461 55.531 145.438 55.531C145.416 55.531 145.399 55.5537 145.387 55.599L143.653 61.294ZM158.859 58.795C158.791 58.829 158.791 58.863 158.859 58.897C160.015 59.441 160.593 60.376 160.593 61.702C160.593 62.7787 160.23 63.6003 159.505 64.167C158.791 64.7223 157.856 65 156.7 65H152.416C152.359 65 152.308 64.983 152.263 64.949C152.229 64.9037 152.212 64.8527 152.212 64.796V53.304C152.212 53.2473 152.229 53.202 152.263 53.168C152.308 53.1227 152.359 53.1 152.416 53.1H156.564C157.799 53.1 158.751 53.3663 159.42 53.899C160.088 54.4317 160.423 55.2363 160.423 56.313C160.423 57.503 159.901 58.3303 158.859 58.795ZM154.269 54.8C154.212 54.8 154.184 54.8283 154.184 54.885V58.03C154.184 58.0867 154.212 58.115 154.269 58.115H156.564C157.164 58.115 157.635 57.9733 157.975 57.69C158.326 57.3953 158.502 56.993 158.502 56.483C158.502 55.9617 158.326 55.5537 157.975 55.259C157.635 54.953 157.164 54.8 156.564 54.8H154.269ZM156.7 63.283C157.289 63.283 157.754 63.1243 158.094 62.807C158.445 62.4897 158.621 62.059 158.621 61.515C158.621 60.9597 158.445 60.529 158.094 60.223C157.742 59.9057 157.266 59.747 156.666 59.747H154.269C154.212 59.747 154.184 59.7753 154.184 59.832V63.198C154.184 63.2547 154.212 63.283 154.269 63.283H156.7ZM162.991 65C162.934 65 162.883 64.983 162.838 64.949C162.804 64.9037 162.787 64.8527 162.787 64.796V53.304C162.787 53.2473 162.804 53.202 162.838 53.168C162.883 53.1227 162.934 53.1 162.991 53.1H164.555C164.612 53.1 164.657 53.1227 164.691 53.168C164.736 53.202 164.759 53.2473 164.759 53.304V63.215C164.759 63.2717 164.787 63.3 164.844 63.3H170.539C170.596 63.3 170.641 63.3227 170.675 63.368C170.72 63.402 170.743 63.4473 170.743 63.504V64.796C170.743 64.8527 170.72 64.9037 170.675 64.949C170.641 64.983 170.596 65 170.539 65H162.991ZM180.557 54.596C180.557 54.6527 180.534 54.7037 180.489 54.749C180.455 54.783 180.409 54.8 180.353 54.8H174.556C174.499 54.8 174.471 54.8283 174.471 54.885V58.064C174.471 58.1207 174.499 58.149 174.556 58.149H178.449C178.505 58.149 178.551 58.1717 178.585 58.217C178.63 58.251 178.653 58.2963 178.653 58.353V59.645C178.653 59.7017 178.63 59.7527 178.585 59.798C178.551 59.832 178.505 59.849 178.449 59.849H174.556C174.499 59.849 174.471 59.8773 174.471 59.934V63.215C174.471 63.2717 174.499 63.3 174.556 63.3H180.353C180.409 63.3 180.455 63.3227 180.489 63.368C180.534 63.402 180.557 63.4473 180.557 63.504V64.796C180.557 64.8527 180.534 64.9037 180.489 64.949C180.455 64.983 180.409 65 180.353 65H172.703C172.646 65 172.595 64.983 172.55 64.949C172.516 64.9037 172.499 64.8527 172.499 64.796V53.304C172.499 53.2473 172.516 53.202 172.55 53.168C172.595 53.1227 172.646 53.1 172.703 53.1H180.353C180.409 53.1 180.455 53.1227 180.489 53.168C180.534 53.202 180.557 53.2473 180.557 53.304V54.596ZM193.783 53.1C193.839 53.1 193.885 53.1227 193.919 53.168C193.964 53.202 193.987 53.2473 193.987 53.304V54.613C193.987 54.6697 193.964 54.7207 193.919 54.766C193.885 54.8 193.839 54.817 193.783 54.817H190.655C190.598 54.817 190.57 54.8453 190.57 54.902V64.796C190.57 64.8527 190.547 64.9037 190.502 64.949C190.468 64.983 190.422 65 190.366 65H188.802C188.745 65 188.694 64.983 188.649 64.949C188.615 64.9037 188.598 64.8527 188.598 64.796V54.902C188.598 54.8453 188.569 54.817 188.513 54.817H185.504C185.447 54.817 185.396 54.8 185.351 54.766C185.317 54.7207 185.3 54.6697 185.3 54.613V53.304C185.3 53.2473 185.317 53.202 185.351 53.168C185.396 53.1227 185.447 53.1 185.504 53.1H193.783ZM202.488 65C202.375 65 202.296 64.949 202.25 64.847L200.006 59.951C199.984 59.9057 199.95 59.883 199.904 59.883H197.864C197.808 59.883 197.779 59.9113 197.779 59.968V64.796C197.779 64.8527 197.757 64.9037 197.711 64.949C197.677 64.983 197.632 65 197.575 65H196.011C195.955 65 195.904 64.983 195.858 64.949C195.824 64.9037 195.807 64.8527 195.807 64.796V53.304C195.807 53.2473 195.824 53.202 195.858 53.168C195.904 53.1227 195.955 53.1 196.011 53.1H200.686C201.378 53.1 201.99 53.2473 202.522 53.542C203.055 53.8253 203.469 54.2333 203.763 54.766C204.058 55.2873 204.205 55.888 204.205 56.568C204.205 57.35 204.001 58.0187 203.593 58.574C203.197 59.118 202.641 59.4977 201.927 59.713C201.905 59.713 201.888 59.7243 201.876 59.747C201.865 59.7697 201.865 59.7923 201.876 59.815L204.273 64.762C204.296 64.8073 204.307 64.8413 204.307 64.864C204.307 64.9547 204.245 65 204.12 65H202.488ZM197.864 54.8C197.808 54.8 197.779 54.8283 197.779 54.885V58.268C197.779 58.3247 197.808 58.353 197.864 58.353H200.414C200.958 58.353 201.395 58.1943 201.723 57.877C202.063 57.5483 202.233 57.1177 202.233 56.585C202.233 56.0523 202.063 55.6217 201.723 55.293C201.395 54.9643 200.958 54.8 200.414 54.8H197.864ZM210.398 65.136C209.56 65.136 208.817 64.9717 208.171 64.643C207.525 64.3143 207.021 63.8497 206.658 63.249C206.307 62.637 206.131 61.9343 206.131 61.141V53.304C206.131 53.2473 206.148 53.202 206.182 53.168C206.228 53.1227 206.279 53.1 206.335 53.1H207.899C207.956 53.1 208.001 53.1227 208.035 53.168C208.081 53.202 208.103 53.2473 208.103 53.304V61.175C208.103 61.8437 208.313 62.3877 208.732 62.807C209.152 63.2263 209.707 63.436 210.398 63.436C211.09 63.436 211.645 63.2263 212.064 62.807C212.484 62.3877 212.693 61.8437 212.693 61.175V53.304C212.693 53.2473 212.71 53.202 212.744 53.168C212.79 53.1227 212.841 53.1 212.897 53.1H214.461C214.518 53.1 214.563 53.1227 214.597 53.168C214.643 53.202 214.665 53.2473 214.665 53.304V61.141C214.665 61.9343 214.49 62.637 214.138 63.249C213.787 63.8497 213.288 64.3143 212.642 64.643C211.996 64.9717 211.248 65.136 210.398 65.136ZM220.883 65.136C219.999 65.136 219.228 64.9943 218.571 64.711C217.913 64.4277 217.403 64.031 217.041 63.521C216.689 63.011 216.514 62.4103 216.514 61.719V61.294C216.514 61.2373 216.531 61.192 216.565 61.158C216.61 61.1127 216.661 61.09 216.718 61.09H218.231C218.287 61.09 218.333 61.1127 218.367 61.158C218.412 61.192 218.435 61.2373 218.435 61.294V61.617C218.435 62.1383 218.667 62.5747 219.132 62.926C219.596 63.266 220.231 63.436 221.036 63.436C221.727 63.436 222.248 63.2887 222.6 62.994C222.951 62.6993 223.127 62.3197 223.127 61.855C223.127 61.5377 223.03 61.2713 222.838 61.056C222.645 60.8293 222.367 60.6253 222.005 60.444C221.653 60.2627 221.121 60.036 220.407 59.764C219.602 59.4693 218.95 59.1917 218.452 58.931C217.953 58.6703 217.534 58.319 217.194 57.877C216.865 57.4237 216.701 56.8627 216.701 56.194C216.701 55.1967 217.063 54.409 217.789 53.831C218.514 53.253 219.483 52.964 220.696 52.964C221.546 52.964 222.294 53.1113 222.94 53.406C223.597 53.7007 224.107 54.1143 224.47 54.647C224.832 55.1683 225.014 55.7747 225.014 56.466V56.755C225.014 56.8117 224.991 56.8627 224.946 56.908C224.912 56.942 224.866 56.959 224.81 56.959H223.28C223.223 56.959 223.172 56.942 223.127 56.908C223.093 56.8627 223.076 56.8117 223.076 56.755V56.568C223.076 56.0353 222.855 55.5877 222.413 55.225C221.982 54.851 221.381 54.664 220.611 54.664C219.987 54.664 219.5 54.7943 219.149 55.055C218.809 55.3157 218.639 55.684 218.639 56.16C218.639 56.5 218.729 56.7777 218.911 56.993C219.092 57.2083 219.364 57.4067 219.727 57.588C220.089 57.758 220.65 57.979 221.41 58.251C222.214 58.557 222.855 58.8347 223.331 59.084C223.818 59.3333 224.232 59.6847 224.572 60.138C224.923 60.58 225.099 61.1353 225.099 61.804C225.099 62.824 224.719 63.6343 223.96 64.235C223.212 64.8357 222.186 65.136 220.883 65.136ZM234.689 53.1C234.746 53.1 234.791 53.1227 234.825 53.168C234.87 53.202 234.893 53.2473 234.893 53.304V54.613C234.893 54.6697 234.87 54.7207 234.825 54.766C234.791 54.8 234.746 54.817 234.689 54.817H231.561C231.504 54.817 231.476 54.8453 231.476 54.902V64.796C231.476 64.8527 231.453 64.9037 231.408 64.949C231.374 64.983 231.329 65 231.272 65H229.708C229.651 65 229.6 64.983 229.555 64.949C229.521 64.9037 229.504 64.8527 229.504 64.796V54.902C229.504 54.8453 229.476 54.817 229.419 54.817H226.41C226.353 54.817 226.302 54.8 226.257 54.766C226.223 54.7207 226.206 54.6697 226.206 54.613V53.304C226.206 53.2473 226.223 53.202 226.257 53.168C226.302 53.1227 226.353 53.1 226.41 53.1H234.689Z" fill="black"/>
</svg>
