<svg width="182" height="64" viewBox="0 0 182 64" fill="none" xmlns="http://www.w3.org/2000/svg">
<path d="M59.2026 37.6602L34.9401 61.2405V56.2224L53.4879 37.6602L36.093 17.6365V11.4978L59.2026 37.6602Z" fill="#EB9309"/>
<path d="M5.91525 25.9675L24.2625 7.01563V1.26672L0 25.9675L23.1096 51.3991V45.4554L5.91525 25.9675Z" fill="#EB9309"/>
<path d="M34.9401 0L11.63 23.9213H17.3948L34.9401 5.94379L52.5354 25.2367H58.2502L34.9401 0Z" fill="#7FB432"/>
<path d="M33.6367 37.4653H25.215V50.2786L33.6367 41.168V37.4653Z" fill="#EB9309"/>
<path d="M33.8874 11.4978L25.0646 20.3648V24.847H33.8874V11.4978Z" fill="#EB9309"/>
<path d="M1.35349 37.6602L24.2625 63.0918L48.1241 37.6602H42.2088L24.2625 56.2224L7.06822 37.6602H1.35349Z" fill="#7FB432"/>
<path d="M39.3514 25.9675L46.9711 36.3448H20.2522L11.63 25.9675H24.8641H39.3514Z" fill="#7FB432"/>
<path d="M72.6388 35.1169C71.3055 35.1169 70.1388 34.9085 69.1388 34.4919C68.1388 34.0585 67.3638 33.4502 66.8138 32.6669C66.2805 31.8669 66.0138 30.9419 66.0138 29.8919V29.3419C66.0138 29.2585 66.0388 29.1919 66.0888 29.1419C66.1555 29.0752 66.2305 29.0419 66.3138 29.0419H69.1638C69.2471 29.0419 69.3138 29.0752 69.3638 29.1419C69.4305 29.1919 69.4638 29.2585 69.4638 29.3419V29.7169C69.4638 30.3835 69.7721 30.9502 70.3888 31.4169C71.0055 31.8669 71.8388 32.0919 72.8888 32.0919C73.7721 32.0919 74.4305 31.9085 74.8638 31.5419C75.2971 31.1585 75.5138 30.6919 75.5138 30.1419C75.5138 29.7419 75.3805 29.4085 75.1138 29.1419C74.8471 28.8585 74.4805 28.6169 74.0138 28.4169C73.5638 28.2002 72.8388 27.9085 71.8388 27.5419C70.7221 27.1585 69.7721 26.7669 68.9888 26.3669C68.2221 25.9669 67.5721 25.4252 67.0388 24.7419C66.5221 24.0419 66.2638 23.1835 66.2638 22.1669C66.2638 21.1669 66.5221 20.2919 67.0388 19.5419C67.5555 18.7919 68.2721 18.2169 69.1888 17.8169C70.1055 17.4169 71.1638 17.2169 72.3638 17.2169C73.6305 17.2169 74.7555 17.4419 75.7388 17.8919C76.7388 18.3419 77.5138 18.9752 78.0638 19.7919C78.6305 20.5919 78.9138 21.5252 78.9138 22.5919V22.9669C78.9138 23.0502 78.8805 23.1252 78.8138 23.1919C78.7638 23.2419 78.6971 23.2669 78.6138 23.2669H75.7388C75.6555 23.2669 75.5805 23.2419 75.5138 23.1919C75.4638 23.1252 75.4388 23.0502 75.4388 22.9669V22.7669C75.4388 22.0669 75.1471 21.4752 74.5638 20.9919C73.9971 20.4919 73.2138 20.2419 72.2138 20.2419C71.4305 20.2419 70.8138 20.4085 70.3638 20.7419C69.9305 21.0752 69.7138 21.5335 69.7138 22.1169C69.7138 22.5335 69.8388 22.8835 70.0888 23.1669C70.3555 23.4502 70.7388 23.7085 71.2388 23.9419C71.7555 24.1585 72.5471 24.4585 73.6138 24.8419C74.7971 25.2752 75.7221 25.6585 76.3888 25.9919C77.0721 26.3252 77.6805 26.8252 78.2138 27.4919C78.7638 28.1419 79.0388 28.9919 79.0388 30.0419C79.0388 31.6085 78.4638 32.8502 77.3138 33.7669C76.1638 34.6669 74.6055 35.1169 72.6388 35.1169ZM84.8449 34.9169C84.6615 34.9169 84.5449 34.8335 84.4949 34.6669L80.0699 17.7419L80.0449 17.6419C80.0449 17.4919 80.1365 17.4169 80.3199 17.4169H83.4199C83.5865 17.4169 83.6949 17.5002 83.7449 17.6669L86.1199 27.8419C86.1365 27.9085 86.1615 27.9419 86.1949 27.9419C86.2282 27.9419 86.2532 27.9085 86.2699 27.8419L88.5699 17.6919C88.6199 17.5085 88.7282 17.4169 88.8949 17.4169H91.9199C92.1032 17.4169 92.2199 17.5002 92.2699 17.6669L94.7699 27.8419C94.7865 27.8919 94.8115 27.9252 94.8449 27.9419C94.8782 27.9419 94.9032 27.9085 94.9199 27.8419L97.2199 17.6919C97.2699 17.5085 97.3782 17.4169 97.5449 17.4169H100.495C100.728 17.4169 100.82 17.5252 100.77 17.7419L96.6699 34.6669C96.6199 34.8335 96.5032 34.9169 96.3199 34.9169H93.3449C93.1782 34.9169 93.0699 34.8335 93.0199 34.6669L90.4699 23.8419C90.4532 23.7752 90.4282 23.7419 90.3949 23.7419C90.3615 23.7419 90.3365 23.7752 90.3199 23.8419L87.9449 34.6419C87.9115 34.8252 87.8032 34.9169 87.6199 34.9169H84.8449ZM111.504 34.9169C111.337 34.9169 111.229 34.8335 111.179 34.6669L110.429 32.2169C110.396 32.1502 110.354 32.1169 110.304 32.1169H104.154C104.104 32.1169 104.062 32.1502 104.029 32.2169L103.304 34.6669C103.254 34.8335 103.146 34.9169 102.979 34.9169H99.804C99.704 34.9169 99.629 34.8919 99.579 34.8419C99.529 34.7752 99.5207 34.6835 99.554 34.5669L104.954 17.6669C105.004 17.5002 105.112 17.4169 105.279 17.4169H109.204C109.371 17.4169 109.479 17.5002 109.529 17.6669L114.929 34.5669C114.946 34.6002 114.954 34.6419 114.954 34.6919C114.954 34.8419 114.862 34.9169 114.679 34.9169H111.504ZM104.929 29.2419C104.912 29.3419 104.946 29.3919 105.029 29.3919H109.429C109.529 29.3919 109.562 29.3419 109.529 29.2419L107.279 21.8169C107.262 21.7502 107.237 21.7252 107.204 21.7419C107.171 21.7419 107.146 21.7669 107.129 21.8169L104.929 29.2419ZM122.053 35.1169C120.72 35.1169 119.553 34.9085 118.553 34.4919C117.553 34.0585 116.778 33.4502 116.228 32.6669C115.695 31.8669 115.428 30.9419 115.428 29.8919V29.3419C115.428 29.2585 115.453 29.1919 115.503 29.1419C115.57 29.0752 115.645 29.0419 115.728 29.0419H118.578C118.661 29.0419 118.728 29.0752 118.778 29.1419C118.845 29.1919 118.878 29.2585 118.878 29.3419V29.7169C118.878 30.3835 119.186 30.9502 119.803 31.4169C120.42 31.8669 121.253 32.0919 122.303 32.0919C123.186 32.0919 123.845 31.9085 124.278 31.5419C124.711 31.1585 124.928 30.6919 124.928 30.1419C124.928 29.7419 124.795 29.4085 124.528 29.1419C124.261 28.8585 123.895 28.6169 123.428 28.4169C122.978 28.2002 122.253 27.9085 121.253 27.5419C120.136 27.1585 119.186 26.7669 118.403 26.3669C117.636 25.9669 116.986 25.4252 116.453 24.7419C115.936 24.0419 115.678 23.1835 115.678 22.1669C115.678 21.1669 115.936 20.2919 116.453 19.5419C116.97 18.7919 117.686 18.2169 118.603 17.8169C119.52 17.4169 120.578 17.2169 121.778 17.2169C123.045 17.2169 124.17 17.4419 125.153 17.8919C126.153 18.3419 126.928 18.9752 127.478 19.7919C128.045 20.5919 128.328 21.5252 128.328 22.5919V22.9669C128.328 23.0502 128.295 23.1252 128.228 23.1919C128.178 23.2419 128.111 23.2669 128.028 23.2669H125.153C125.07 23.2669 124.995 23.2419 124.928 23.1919C124.878 23.1252 124.853 23.0502 124.853 22.9669V22.7669C124.853 22.0669 124.561 21.4752 123.978 20.9919C123.411 20.4919 122.628 20.2419 121.628 20.2419C120.845 20.2419 120.228 20.4085 119.778 20.7419C119.345 21.0752 119.128 21.5335 119.128 22.1169C119.128 22.5335 119.253 22.8835 119.503 23.1669C119.77 23.4502 120.153 23.7085 120.653 23.9419C121.17 24.1585 121.961 24.4585 123.028 24.8419C124.211 25.2752 125.136 25.6585 125.803 25.9919C126.486 26.3252 127.095 26.8252 127.628 27.4919C128.178 28.1419 128.453 28.9919 128.453 30.0419C128.453 31.6085 127.878 32.8502 126.728 33.7669C125.578 34.6669 124.02 35.1169 122.053 35.1169ZM142.801 17.4169C142.884 17.4169 142.951 17.4502 143.001 17.5169C143.067 17.5669 143.101 17.6335 143.101 17.7169V20.1669C143.101 20.2502 143.067 20.3252 143.001 20.3919C142.951 20.4419 142.884 20.4669 142.801 20.4669H138.326C138.242 20.4669 138.201 20.5085 138.201 20.5919V34.6169C138.201 34.7002 138.167 34.7752 138.101 34.8419C138.051 34.8919 137.984 34.9169 137.901 34.9169H134.976C134.892 34.9169 134.817 34.8919 134.751 34.8419C134.701 34.7752 134.676 34.7002 134.676 34.6169V20.5919C134.676 20.5085 134.634 20.4669 134.551 20.4669H130.201C130.117 20.4669 130.042 20.4419 129.976 20.3919C129.926 20.3252 129.901 20.2502 129.901 20.1669V17.7169C129.901 17.6335 129.926 17.5669 129.976 17.5169C130.042 17.4502 130.117 17.4169 130.201 17.4169H142.801ZM154.65 17.7169C154.65 17.6335 154.675 17.5669 154.725 17.5169C154.791 17.4502 154.866 17.4169 154.95 17.4169H157.875C157.958 17.4169 158.025 17.4502 158.075 17.5169C158.141 17.5669 158.175 17.6335 158.175 17.7169V34.6169C158.175 34.7002 158.141 34.7752 158.075 34.8419C158.025 34.8919 157.958 34.9169 157.875 34.9169H154.95C154.866 34.9169 154.791 34.8919 154.725 34.8419C154.675 34.7752 154.65 34.7002 154.65 34.6169V27.7169C154.65 27.6335 154.608 27.5919 154.525 27.5919H149C148.916 27.5919 148.875 27.6335 148.875 27.7169V34.6169C148.875 34.7002 148.841 34.7752 148.775 34.8419C148.725 34.8919 148.658 34.9169 148.575 34.9169H145.65C145.566 34.9169 145.491 34.8919 145.425 34.8419C145.375 34.7752 145.35 34.7002 145.35 34.6169V17.7169C145.35 17.6335 145.375 17.5669 145.425 17.5169C145.491 17.4502 145.566 17.4169 145.65 17.4169H148.575C148.658 17.4169 148.725 17.4502 148.775 17.5169C148.841 17.5669 148.875 17.6335 148.875 17.7169V24.4419C148.875 24.5252 148.916 24.5669 149 24.5669H154.525C154.608 24.5669 154.65 24.5252 154.65 24.4419V17.7169ZM161.348 34.9169C161.265 34.9169 161.19 34.8919 161.123 34.8419C161.073 34.7752 161.048 34.7002 161.048 34.6169V17.7169C161.048 17.6335 161.073 17.5669 161.123 17.5169C161.19 17.4502 161.265 17.4169 161.348 17.4169H164.273C164.356 17.4169 164.423 17.4502 164.473 17.5169C164.54 17.5669 164.573 17.6335 164.573 17.7169V34.6169C164.573 34.7002 164.54 34.7752 164.473 34.8419C164.423 34.8919 164.356 34.9169 164.273 34.9169H161.348ZM167.915 34.9169C167.832 34.9169 167.757 34.8919 167.69 34.8419C167.64 34.7752 167.615 34.7002 167.615 34.6169V17.7169C167.615 17.6335 167.64 17.5669 167.69 17.5169C167.757 17.4502 167.832 17.4169 167.915 17.4169H170.84C170.924 17.4169 170.99 17.4502 171.04 17.5169C171.107 17.5669 171.14 17.6335 171.14 17.7169V24.7169C171.14 24.7669 171.157 24.8002 171.19 24.8169C171.224 24.8169 171.257 24.8002 171.29 24.7669L177.065 17.5919C177.165 17.4752 177.29 17.4169 177.44 17.4169H180.74C180.874 17.4169 180.957 17.4585 180.99 17.5419C181.024 17.6085 181.007 17.6919 180.94 17.7919L175.365 24.9169C175.315 24.9835 175.307 25.0419 175.34 25.0919L181.24 34.5669C181.274 34.6669 181.29 34.7252 181.29 34.7419C181.29 34.8585 181.207 34.9169 181.04 34.9169H177.74C177.574 34.9169 177.457 34.8502 177.39 34.7169L172.94 27.5169C172.924 27.4835 172.899 27.4669 172.865 27.4669C172.832 27.4669 172.799 27.4835 172.765 27.5169L171.19 29.4919C171.157 29.5585 171.14 29.6085 171.14 29.6419V34.6169C171.14 34.7002 171.107 34.7752 171.04 34.8419C170.99 34.8919 170.924 34.9169 170.84 34.9169H167.915Z" fill="white"/>
<path d="M74.5293 50.7168C73.9293 50.7168 73.4013 50.6008 72.9453 50.3688C72.4893 50.1288 72.1373 49.7968 71.8893 49.3728C71.6413 48.9488 71.5173 48.4568 71.5173 47.8968V44.9328C71.5173 44.3728 71.6413 43.8808 71.8893 43.4568C72.1373 43.0328 72.4893 42.7048 72.9453 42.4728C73.4013 42.2408 73.9293 42.1248 74.5293 42.1248C75.1213 42.1248 75.6453 42.2368 76.1013 42.4608C76.5573 42.6848 76.9093 43.0008 77.1573 43.4088C77.4053 43.8168 77.5293 44.2888 77.5293 44.8248C77.5293 44.8648 77.5133 44.9008 77.4813 44.9328C77.4573 44.9568 77.4253 44.9688 77.3853 44.9688L76.2813 45.0288C76.1853 45.0288 76.1373 44.9848 76.1373 44.8968C76.1373 44.4248 75.9893 44.0448 75.6933 43.7568C75.4053 43.4688 75.0173 43.3248 74.5293 43.3248C74.0413 43.3248 73.6493 43.4688 73.3533 43.7568C73.0573 44.0448 72.9093 44.4248 72.9093 44.8968V47.9568C72.9093 48.4208 73.0573 48.7968 73.3533 49.0848C73.6493 49.3728 74.0413 49.5168 74.5293 49.5168C75.0173 49.5168 75.4053 49.3768 75.6933 49.0968C75.9893 48.8088 76.1373 48.4288 76.1373 47.9568C76.1373 47.8688 76.1853 47.8248 76.2813 47.8248L77.3853 47.8728C77.4253 47.8728 77.4573 47.8848 77.4813 47.9088C77.5133 47.9328 77.5293 47.9608 77.5293 47.9928C77.5293 48.5368 77.4053 49.0168 77.1573 49.4328C76.9093 49.8408 76.5573 50.1568 76.1013 50.3808C75.6453 50.6048 75.1213 50.7168 74.5293 50.7168ZM83.5941 42.3648C83.5941 42.3248 83.6061 42.2928 83.6301 42.2688C83.6621 42.2368 83.6981 42.2208 83.7381 42.2208H84.8421C84.8821 42.2208 84.9141 42.2368 84.9381 42.2688C84.9701 42.2928 84.9861 42.3248 84.9861 42.3648V50.4768C84.9861 50.5168 84.9701 50.5528 84.9381 50.5848C84.9141 50.6088 84.8821 50.6208 84.8421 50.6208H83.7381C83.6981 50.6208 83.6621 50.6088 83.6301 50.5848C83.6061 50.5528 83.5941 50.5168 83.5941 50.4768V47.0448C83.5941 47.0048 83.5741 46.9848 83.5341 46.9848H80.4741C80.4341 46.9848 80.4141 47.0048 80.4141 47.0448V50.4768C80.4141 50.5168 80.3981 50.5528 80.3661 50.5848C80.3421 50.6088 80.3101 50.6208 80.2701 50.6208H79.1661C79.1261 50.6208 79.0901 50.6088 79.0581 50.5848C79.0341 50.5528 79.0221 50.5168 79.0221 50.4768V42.3648C79.0221 42.3248 79.0341 42.2928 79.0581 42.2688C79.0901 42.2368 79.1261 42.2208 79.1661 42.2208H80.2701C80.3101 42.2208 80.3421 42.2368 80.3661 42.2688C80.3981 42.2928 80.4141 42.3248 80.4141 42.3648V45.7248C80.4141 45.7648 80.4341 45.7848 80.4741 45.7848H83.5341C83.5741 45.7848 83.5941 45.7648 83.5941 45.7248V42.3648ZM91.9176 50.6208C91.8376 50.6208 91.7856 50.5808 91.7616 50.5008L91.3656 49.2168C91.3496 49.1848 91.3296 49.1688 91.3056 49.1688H88.1376C88.1136 49.1688 88.0936 49.1848 88.0776 49.2168L87.6816 50.5008C87.6576 50.5808 87.6056 50.6208 87.5256 50.6208H86.3256C86.2776 50.6208 86.2416 50.6088 86.2176 50.5848C86.1936 50.5528 86.1896 50.5088 86.2056 50.4528L88.8096 42.3408C88.8336 42.2608 88.8856 42.2208 88.9656 42.2208H90.4656C90.5456 42.2208 90.5976 42.2608 90.6216 42.3408L93.2376 50.4528C93.2456 50.4688 93.2496 50.4888 93.2496 50.5128C93.2496 50.5848 93.2056 50.6208 93.1176 50.6208H91.9176ZM88.4496 48.0048C88.4416 48.0528 88.4576 48.0768 88.4976 48.0768H90.9336C90.9816 48.0768 90.9976 48.0528 90.9816 48.0048L89.7456 43.9848C89.7376 43.9528 89.7256 43.9368 89.7096 43.9368C89.6936 43.9368 89.6816 43.9528 89.6736 43.9848L88.4496 48.0048ZM99.2069 50.6208C99.1269 50.6208 99.0709 50.5848 99.0389 50.5128L97.4549 47.0568C97.4389 47.0248 97.4149 47.0088 97.3829 47.0088H95.9429C95.9029 47.0088 95.8829 47.0288 95.8829 47.0688V50.4768C95.8829 50.5168 95.8669 50.5528 95.8349 50.5848C95.8109 50.6088 95.7789 50.6208 95.7389 50.6208H94.6349C94.5949 50.6208 94.5589 50.6088 94.5269 50.5848C94.5029 50.5528 94.4909 50.5168 94.4909 50.4768V42.3648C94.4909 42.3248 94.5029 42.2928 94.5269 42.2688C94.5589 42.2368 94.5949 42.2208 94.6349 42.2208H97.9349C98.4229 42.2208 98.8549 42.3248 99.2309 42.5328C99.6069 42.7328 99.8989 43.0208 100.107 43.3968C100.315 43.7648 100.419 44.1888 100.419 44.6688C100.419 45.2208 100.275 45.6928 99.9869 46.0848C99.7069 46.4688 99.3149 46.7368 98.8109 46.8888C98.7949 46.8888 98.7829 46.8968 98.7749 46.9128C98.7669 46.9288 98.7669 46.9448 98.7749 46.9608L100.467 50.4528C100.483 50.4848 100.491 50.5088 100.491 50.5248C100.491 50.5888 100.447 50.6208 100.359 50.6208H99.2069ZM95.9429 43.4208C95.9029 43.4208 95.8829 43.4408 95.8829 43.4808V45.8688C95.8829 45.9088 95.9029 45.9288 95.9429 45.9288H97.7429C98.1269 45.9288 98.4349 45.8168 98.6669 45.5928C98.9069 45.3608 99.0269 45.0568 99.0269 44.6808C99.0269 44.3048 98.9069 44.0008 98.6669 43.7688C98.4349 43.5368 98.1269 43.4208 97.7429 43.4208H95.9429ZM101.994 50.6208C101.954 50.6208 101.918 50.6088 101.886 50.5848C101.862 50.5528 101.85 50.5168 101.85 50.4768V42.3648C101.85 42.3248 101.862 42.2928 101.886 42.2688C101.918 42.2368 101.954 42.2208 101.994 42.2208H103.098C103.138 42.2208 103.17 42.2368 103.194 42.2688C103.226 42.2928 103.242 42.3248 103.242 42.3648V50.4768C103.242 50.5168 103.226 50.5528 103.194 50.5848C103.17 50.6088 103.138 50.6208 103.098 50.6208H101.994ZM110.511 42.2208C110.551 42.2208 110.583 42.2368 110.607 42.2688C110.639 42.2928 110.655 42.3248 110.655 42.3648V43.2888C110.655 43.3288 110.639 43.3648 110.607 43.3968C110.583 43.4208 110.551 43.4328 110.511 43.4328H108.303C108.263 43.4328 108.243 43.4528 108.243 43.4928V50.4768C108.243 50.5168 108.227 50.5528 108.195 50.5848C108.171 50.6088 108.139 50.6208 108.099 50.6208H106.995C106.955 50.6208 106.919 50.6088 106.887 50.5848C106.863 50.5528 106.851 50.5168 106.851 50.4768V43.4928C106.851 43.4528 106.831 43.4328 106.791 43.4328H104.667C104.627 43.4328 104.591 43.4208 104.559 43.3968C104.535 43.3648 104.523 43.3288 104.523 43.2888V42.3648C104.523 42.3248 104.535 42.2928 104.559 42.2688C104.591 42.2368 104.627 42.2208 104.667 42.2208H110.511ZM116.422 50.6208C116.342 50.6208 116.29 50.5808 116.266 50.5008L115.87 49.2168C115.854 49.1848 115.834 49.1688 115.81 49.1688H112.642C112.618 49.1688 112.598 49.1848 112.582 49.2168L112.186 50.5008C112.162 50.5808 112.11 50.6208 112.03 50.6208H110.83C110.782 50.6208 110.746 50.6088 110.722 50.5848C110.698 50.5528 110.694 50.5088 110.71 50.4528L113.314 42.3408C113.338 42.2608 113.39 42.2208 113.47 42.2208H114.97C115.05 42.2208 115.102 42.2608 115.126 42.3408L117.742 50.4528C117.75 50.4688 117.754 50.4888 117.754 50.5128C117.754 50.5848 117.71 50.6208 117.622 50.6208H116.422ZM112.954 48.0048C112.946 48.0528 112.962 48.0768 113.002 48.0768H115.438C115.486 48.0768 115.502 48.0528 115.486 48.0048L114.25 43.9848C114.242 43.9528 114.23 43.9368 114.214 43.9368C114.198 43.9368 114.186 43.9528 114.178 43.9848L112.954 48.0048ZM123.687 46.2408C123.639 46.2648 123.639 46.2888 123.687 46.3128C124.503 46.6968 124.911 47.3568 124.911 48.2928C124.911 49.0528 124.655 49.6328 124.143 50.0328C123.639 50.4248 122.979 50.6208 122.163 50.6208H119.139C119.099 50.6208 119.063 50.6088 119.031 50.5848C119.007 50.5528 118.995 50.5168 118.995 50.4768V42.3648C118.995 42.3248 119.007 42.2928 119.031 42.2688C119.063 42.2368 119.099 42.2208 119.139 42.2208H122.067C122.939 42.2208 123.611 42.4088 124.083 42.7848C124.555 43.1608 124.791 43.7288 124.791 44.4888C124.791 45.3288 124.423 45.9128 123.687 46.2408ZM120.447 43.4208C120.407 43.4208 120.387 43.4408 120.387 43.4808V45.7008C120.387 45.7408 120.407 45.7608 120.447 45.7608H122.067C122.491 45.7608 122.823 45.6608 123.063 45.4608C123.311 45.2528 123.435 44.9688 123.435 44.6088C123.435 44.2408 123.311 43.9528 123.063 43.7448C122.823 43.5288 122.491 43.4208 122.067 43.4208H120.447ZM122.163 49.4088C122.579 49.4088 122.907 49.2968 123.147 49.0728C123.395 48.8488 123.519 48.5448 123.519 48.1608C123.519 47.7688 123.395 47.4648 123.147 47.2488C122.899 47.0248 122.563 46.9128 122.139 46.9128H120.447C120.407 46.9128 120.387 46.9328 120.387 46.9728V49.3488C120.387 49.3888 120.407 49.4088 120.447 49.4088H122.163ZM126.604 50.6208C126.564 50.6208 126.528 50.6088 126.496 50.5848C126.472 50.5528 126.46 50.5168 126.46 50.4768V42.3648C126.46 42.3248 126.472 42.2928 126.496 42.2688C126.528 42.2368 126.564 42.2208 126.604 42.2208H127.708C127.748 42.2208 127.78 42.2368 127.804 42.2688C127.836 42.2928 127.852 42.3248 127.852 42.3648V49.3608C127.852 49.4008 127.872 49.4208 127.912 49.4208H131.932C131.972 49.4208 132.004 49.4368 132.028 49.4688C132.06 49.4928 132.076 49.5248 132.076 49.5648V50.4768C132.076 50.5168 132.06 50.5528 132.028 50.5848C132.004 50.6088 131.972 50.6208 131.932 50.6208H126.604ZM139.003 43.2768C139.003 43.3168 138.987 43.3528 138.955 43.3848C138.931 43.4088 138.899 43.4208 138.859 43.4208H134.767C134.727 43.4208 134.707 43.4408 134.707 43.4808V45.7248C134.707 45.7648 134.727 45.7848 134.767 45.7848H137.515C137.555 45.7848 137.587 45.8008 137.611 45.8328C137.643 45.8568 137.659 45.8888 137.659 45.9288V46.8408C137.659 46.8808 137.643 46.9168 137.611 46.9488C137.587 46.9728 137.555 46.9848 137.515 46.9848H134.767C134.727 46.9848 134.707 47.0048 134.707 47.0448V49.3608C134.707 49.4008 134.727 49.4208 134.767 49.4208H138.859C138.899 49.4208 138.931 49.4368 138.955 49.4688C138.987 49.4928 139.003 49.5248 139.003 49.5648V50.4768C139.003 50.5168 138.987 50.5528 138.955 50.5848C138.931 50.6088 138.899 50.6208 138.859 50.6208H133.459C133.419 50.6208 133.383 50.6088 133.351 50.5848C133.327 50.5528 133.315 50.5168 133.315 50.4768V42.3648C133.315 42.3248 133.327 42.2928 133.351 42.2688C133.383 42.2368 133.419 42.2208 133.459 42.2208H138.859C138.899 42.2208 138.931 42.2368 138.955 42.2688C138.987 42.2928 139.003 42.3248 139.003 42.3648V43.2768ZM148.339 42.2208C148.379 42.2208 148.411 42.2368 148.435 42.2688C148.467 42.2928 148.483 42.3248 148.483 42.3648V43.2888C148.483 43.3288 148.467 43.3648 148.435 43.3968C148.411 43.4208 148.379 43.4328 148.339 43.4328H146.131C146.091 43.4328 146.071 43.4528 146.071 43.4928V50.4768C146.071 50.5168 146.055 50.5528 146.023 50.5848C145.999 50.6088 145.967 50.6208 145.927 50.6208H144.823C144.783 50.6208 144.747 50.6088 144.715 50.5848C144.691 50.5528 144.679 50.5168 144.679 50.4768V43.4928C144.679 43.4528 144.659 43.4328 144.619 43.4328H142.495C142.455 43.4328 142.419 43.4208 142.387 43.3968C142.363 43.3648 142.351 43.3288 142.351 43.2888V42.3648C142.351 42.3248 142.363 42.2928 142.387 42.2688C142.419 42.2368 142.455 42.2208 142.495 42.2208H148.339ZM154.484 50.6208C154.404 50.6208 154.348 50.5848 154.316 50.5128L152.732 47.0568C152.716 47.0248 152.692 47.0088 152.66 47.0088H151.22C151.18 47.0088 151.16 47.0288 151.16 47.0688V50.4768C151.16 50.5168 151.144 50.5528 151.112 50.5848C151.088 50.6088 151.056 50.6208 151.016 50.6208H149.912C149.872 50.6208 149.836 50.6088 149.804 50.5848C149.78 50.5528 149.768 50.5168 149.768 50.4768V42.3648C149.768 42.3248 149.78 42.2928 149.804 42.2688C149.836 42.2368 149.872 42.2208 149.912 42.2208H153.212C153.7 42.2208 154.132 42.3248 154.508 42.5328C154.884 42.7328 155.176 43.0208 155.384 43.3968C155.592 43.7648 155.696 44.1888 155.696 44.6688C155.696 45.2208 155.552 45.6928 155.264 46.0848C154.984 46.4688 154.592 46.7368 154.088 46.8888C154.072 46.8888 154.06 46.8968 154.052 46.9128C154.044 46.9288 154.044 46.9448 154.052 46.9608L155.744 50.4528C155.76 50.4848 155.768 50.5088 155.768 50.5248C155.768 50.5888 155.724 50.6208 155.636 50.6208H154.484ZM151.22 43.4208C151.18 43.4208 151.16 43.4408 151.16 43.4808V45.8688C151.16 45.9088 151.18 45.9288 151.22 45.9288H153.02C153.404 45.9288 153.712 45.8168 153.944 45.5928C154.184 45.3608 154.304 45.0568 154.304 44.6808C154.304 44.3048 154.184 44.0008 153.944 43.7688C153.712 43.5368 153.404 43.4208 153.02 43.4208H151.22ZM160.068 50.7168C159.476 50.7168 158.952 50.6008 158.496 50.3688C158.04 50.1368 157.684 49.8088 157.428 49.3848C157.18 48.9528 157.056 48.4568 157.056 47.8968V42.3648C157.056 42.3248 157.068 42.2928 157.092 42.2688C157.124 42.2368 157.16 42.2208 157.2 42.2208H158.304C158.344 42.2208 158.376 42.2368 158.4 42.2688C158.432 42.2928 158.448 42.3248 158.448 42.3648V47.9208C158.448 48.3928 158.596 48.7768 158.892 49.0728C159.188 49.3688 159.58 49.5168 160.068 49.5168C160.556 49.5168 160.948 49.3688 161.244 49.0728C161.54 48.7768 161.688 48.3928 161.688 47.9208V42.3648C161.688 42.3248 161.7 42.2928 161.724 42.2688C161.756 42.2368 161.792 42.2208 161.832 42.2208H162.936C162.976 42.2208 163.008 42.2368 163.032 42.2688C163.064 42.2928 163.08 42.3248 163.08 42.3648V47.8968C163.08 48.4568 162.956 48.9528 162.708 49.3848C162.46 49.8088 162.108 50.1368 161.652 50.3688C161.196 50.6008 160.668 50.7168 160.068 50.7168ZM167.468 50.7168C166.844 50.7168 166.3 50.6168 165.836 50.4168C165.372 50.2168 165.012 49.9368 164.756 49.5768C164.508 49.2168 164.384 48.7928 164.384 48.3048V48.0048C164.384 47.9648 164.396 47.9328 164.42 47.9088C164.452 47.8768 164.488 47.8608 164.528 47.8608H165.596C165.636 47.8608 165.668 47.8768 165.692 47.9088C165.724 47.9328 165.74 47.9648 165.74 48.0048V48.2328C165.74 48.6008 165.904 48.9088 166.232 49.1568C166.56 49.3968 167.008 49.5168 167.576 49.5168C168.064 49.5168 168.432 49.4128 168.68 49.2048C168.928 48.9968 169.052 48.7288 169.052 48.4008C169.052 48.1768 168.984 47.9888 168.848 47.8368C168.712 47.6768 168.516 47.5328 168.26 47.4048C168.012 47.2768 167.636 47.1168 167.132 46.9248C166.564 46.7168 166.104 46.5208 165.752 46.3368C165.4 46.1528 165.104 45.9048 164.864 45.5928C164.632 45.2728 164.516 44.8768 164.516 44.4048C164.516 43.7008 164.772 43.1448 165.284 42.7368C165.796 42.3288 166.48 42.1248 167.336 42.1248C167.936 42.1248 168.464 42.2288 168.92 42.4368C169.384 42.6448 169.744 42.9368 170 43.3128C170.256 43.6808 170.384 44.1088 170.384 44.5968V44.8008C170.384 44.8408 170.368 44.8768 170.336 44.9088C170.312 44.9328 170.28 44.9448 170.24 44.9448H169.16C169.12 44.9448 169.084 44.9328 169.052 44.9088C169.028 44.8768 169.016 44.8408 169.016 44.8008V44.6688C169.016 44.2928 168.86 43.9768 168.548 43.7208C168.244 43.4568 167.82 43.3248 167.276 43.3248C166.836 43.3248 166.492 43.4168 166.244 43.6008C166.004 43.7848 165.884 44.0448 165.884 44.3808C165.884 44.6208 165.948 44.8168 166.076 44.9688C166.204 45.1208 166.396 45.2608 166.652 45.3888C166.908 45.5088 167.304 45.6648 167.84 45.8568C168.408 46.0728 168.86 46.2688 169.196 46.4448C169.54 46.6208 169.832 46.8688 170.072 47.1888C170.32 47.5008 170.444 47.8928 170.444 48.3648C170.444 49.0848 170.176 49.6568 169.64 50.0808C169.112 50.5048 168.388 50.7168 167.468 50.7168ZM177.214 42.2208C177.254 42.2208 177.286 42.2368 177.31 42.2688C177.342 42.2928 177.358 42.3248 177.358 42.3648V43.2888C177.358 43.3288 177.342 43.3648 177.31 43.3968C177.286 43.4208 177.254 43.4328 177.214 43.4328H175.006C174.966 43.4328 174.946 43.4528 174.946 43.4928V50.4768C174.946 50.5168 174.93 50.5528 174.898 50.5848C174.874 50.6088 174.842 50.6208 174.802 50.6208H173.698C173.658 50.6208 173.622 50.6088 173.59 50.5848C173.566 50.5528 173.554 50.5168 173.554 50.4768V43.4928C173.554 43.4528 173.534 43.4328 173.494 43.4328H171.37C171.33 43.4328 171.294 43.4208 171.262 43.3968C171.238 43.3648 171.226 43.3288 171.226 43.2888V42.3648C171.226 42.3248 171.238 42.2928 171.262 42.2688C171.294 42.2368 171.33 42.2208 171.37 42.2208H177.214Z" fill="white"/>
</svg>
