<svg width="151" height="46" viewBox="0 0 151 46" fill="none" xmlns="http://www.w3.org/2000/svg">
<path d="M46 27.4579L27.1482 44.6502V40.9915L41.5597 27.4579L28.044 12.8587V8.38301L46 27.4579Z" fill="#EB9309"/>
<path d="M4.5961 18.9328L18.8518 5.11506V0.923552L0 18.9328L17.956 37.4749V33.1413L4.5961 18.9328Z" fill="#EB9309"/>
<path d="M27.1482 0L9.03641 17.4409H13.5157L27.1482 4.33359L40.8196 18.4H45.2599L27.1482 0Z" fill="#7FB432"/>
<path d="M26.1355 27.3158H19.5919V36.6579L26.1355 30.0154V27.3158Z" fill="#EB9309"/>
<path d="M26.3302 8.38301L19.475 14.8479V18.1158H26.3302V8.38301Z" fill="#EB9309"/>
<path d="M1.05165 27.4579L18.8518 46L37.392 27.4579H32.7959L18.8518 40.9915L5.49196 27.4579H1.05165Z" fill="#7FB432"/>
<path d="M30.5758 18.9328L36.4962 26.4988H15.7358L9.03641 18.9328H19.3192H30.5758Z" fill="#7FB432"/>
<path d="M58.418 24.144C57.458 24.144 56.618 23.994 55.898 23.694C55.178 23.382 54.62 22.944 54.224 22.38C53.84 21.804 53.648 21.138 53.648 20.382V19.986C53.648 19.926 53.666 19.878 53.702 19.842C53.75 19.794 53.804 19.77 53.864 19.77H55.916C55.976 19.77 56.024 19.794 56.06 19.842C56.108 19.878 56.132 19.926 56.132 19.986V20.256C56.132 20.736 56.354 21.144 56.798 21.48C57.242 21.804 57.842 21.966 58.598 21.966C59.234 21.966 59.708 21.834 60.02 21.57C60.332 21.294 60.488 20.958 60.488 20.562C60.488 20.274 60.392 20.034 60.2 19.842C60.008 19.638 59.744 19.464 59.408 19.32C59.084 19.164 58.562 18.954 57.842 18.69C57.038 18.414 56.354 18.132 55.79 17.844C55.238 17.556 54.77 17.166 54.386 16.674C54.014 16.17 53.828 15.552 53.828 14.82C53.828 14.1 54.014 13.47 54.386 12.93C54.758 12.39 55.274 11.976 55.934 11.688C56.594 11.4 57.356 11.256 58.22 11.256C59.132 11.256 59.942 11.418 60.65 11.742C61.37 12.066 61.928 12.522 62.324 13.11C62.732 13.686 62.936 14.358 62.936 15.126V15.396C62.936 15.456 62.912 15.51 62.864 15.558C62.828 15.594 62.78 15.612 62.72 15.612H60.65C60.59 15.612 60.536 15.594 60.488 15.558C60.452 15.51 60.434 15.456 60.434 15.396V15.252C60.434 14.748 60.224 14.322 59.804 13.974C59.396 13.614 58.832 13.434 58.112 13.434C57.548 13.434 57.104 13.554 56.78 13.794C56.468 14.034 56.312 14.364 56.312 14.784C56.312 15.084 56.402 15.336 56.582 15.54C56.774 15.744 57.05 15.93 57.41 16.098C57.782 16.254 58.352 16.47 59.12 16.746C59.972 17.058 60.638 17.334 61.118 17.574C61.61 17.814 62.048 18.174 62.432 18.654C62.828 19.122 63.026 19.734 63.026 20.49C63.026 21.618 62.612 22.512 61.784 23.172C60.956 23.82 59.834 24.144 58.418 24.144ZM67.2064 24C67.0744 24 66.9904 23.94 66.9544 23.82L63.7684 11.634L63.7504 11.562C63.7504 11.454 63.8164 11.4 63.9484 11.4H66.1804C66.3004 11.4 66.3784 11.46 66.4144 11.58L68.1244 18.906C68.1364 18.954 68.1544 18.978 68.1784 18.978C68.2024 18.978 68.2204 18.954 68.2324 18.906L69.8884 11.598C69.9244 11.466 70.0024 11.4 70.1224 11.4H72.3004C72.4324 11.4 72.5164 11.46 72.5524 11.58L74.3524 18.906C74.3644 18.942 74.3824 18.966 74.4064 18.978C74.4304 18.978 74.4484 18.954 74.4604 18.906L76.1164 11.598C76.1524 11.466 76.2304 11.4 76.3504 11.4H78.4744C78.6424 11.4 78.7084 11.478 78.6724 11.634L75.7204 23.82C75.6844 23.94 75.6004 24 75.4684 24H73.3264C73.2064 24 73.1284 23.94 73.0924 23.82L71.2564 16.026C71.2444 15.978 71.2264 15.954 71.2024 15.954C71.1784 15.954 71.1604 15.978 71.1484 16.026L69.4384 23.802C69.4144 23.934 69.3364 24 69.2044 24H67.2064ZM86.401 24C86.281 24 86.203 23.94 86.167 23.82L85.627 22.056C85.603 22.008 85.573 21.984 85.537 21.984H81.109C81.073 21.984 81.043 22.008 81.019 22.056L80.497 23.82C80.461 23.94 80.383 24 80.263 24H77.977C77.905 24 77.851 23.982 77.815 23.946C77.779 23.898 77.773 23.832 77.797 23.748L81.685 11.58C81.721 11.46 81.799 11.4 81.919 11.4H84.745C84.865 11.4 84.943 11.46 84.979 11.58L88.867 23.748C88.879 23.772 88.885 23.802 88.885 23.838C88.885 23.946 88.819 24 88.687 24H86.401ZM81.667 19.914C81.655 19.986 81.679 20.022 81.739 20.022H84.907C84.979 20.022 85.003 19.986 84.979 19.914L83.359 14.568C83.347 14.52 83.329 14.502 83.305 14.514C83.281 14.514 83.263 14.532 83.251 14.568L81.667 19.914ZM93.9961 24.144C93.0361 24.144 92.1961 23.994 91.4761 23.694C90.7561 23.382 90.1981 22.944 89.8021 22.38C89.4181 21.804 89.2261 21.138 89.2261 20.382V19.986C89.2261 19.926 89.2441 19.878 89.2801 19.842C89.3281 19.794 89.3821 19.77 89.4421 19.77H91.4941C91.5541 19.77 91.6021 19.794 91.6381 19.842C91.6861 19.878 91.7101 19.926 91.7101 19.986V20.256C91.7101 20.736 91.9321 21.144 92.3761 21.48C92.8201 21.804 93.4201 21.966 94.1761 21.966C94.8121 21.966 95.2861 21.834 95.5981 21.57C95.9101 21.294 96.0661 20.958 96.0661 20.562C96.0661 20.274 95.9701 20.034 95.7781 19.842C95.5861 19.638 95.3221 19.464 94.9861 19.32C94.6621 19.164 94.1401 18.954 93.4201 18.69C92.6161 18.414 91.9321 18.132 91.3681 17.844C90.8161 17.556 90.3481 17.166 89.9641 16.674C89.5921 16.17 89.4061 15.552 89.4061 14.82C89.4061 14.1 89.5921 13.47 89.9641 12.93C90.3361 12.39 90.8521 11.976 91.5121 11.688C92.1721 11.4 92.9341 11.256 93.7981 11.256C94.7101 11.256 95.5201 11.418 96.2281 11.742C96.9481 12.066 97.5061 12.522 97.9021 13.11C98.3101 13.686 98.5141 14.358 98.5141 15.126V15.396C98.5141 15.456 98.4901 15.51 98.4421 15.558C98.4061 15.594 98.3581 15.612 98.2981 15.612H96.2281C96.1681 15.612 96.1141 15.594 96.0661 15.558C96.0301 15.51 96.0121 15.456 96.0121 15.396V15.252C96.0121 14.748 95.8021 14.322 95.3821 13.974C94.9741 13.614 94.4101 13.434 93.6901 13.434C93.1261 13.434 92.6821 13.554 92.3581 13.794C92.0461 14.034 91.8901 14.364 91.8901 14.784C91.8901 15.084 91.9801 15.336 92.1601 15.54C92.3521 15.744 92.6281 15.93 92.9881 16.098C93.3601 16.254 93.9301 16.47 94.6981 16.746C95.5501 17.058 96.2161 17.334 96.6961 17.574C97.1881 17.814 97.6261 18.174 98.0101 18.654C98.4061 19.122 98.6041 19.734 98.6041 20.49C98.6041 21.618 98.1901 22.512 97.3621 23.172C96.5341 23.82 95.4121 24.144 93.9961 24.144ZM108.935 11.4C108.995 11.4 109.043 11.424 109.079 11.472C109.127 11.508 109.151 11.556 109.151 11.616V13.38C109.151 13.44 109.127 13.494 109.079 13.542C109.043 13.578 108.995 13.596 108.935 13.596H105.713C105.653 13.596 105.623 13.626 105.623 13.686V23.784C105.623 23.844 105.599 23.898 105.551 23.946C105.515 23.982 105.467 24 105.407 24H103.301C103.241 24 103.187 23.982 103.139 23.946C103.103 23.898 103.085 23.844 103.085 23.784V13.686C103.085 13.626 103.055 13.596 102.995 13.596H99.8626C99.8026 13.596 99.7486 13.578 99.7006 13.542C99.6646 13.494 99.6466 13.44 99.6466 13.38V11.616C99.6466 11.556 99.6646 11.508 99.7006 11.472C99.7486 11.424 99.8026 11.4 99.8626 11.4H108.935ZM117.466 11.616C117.466 11.556 117.484 11.508 117.52 11.472C117.568 11.424 117.622 11.4 117.682 11.4H119.788C119.848 11.4 119.896 11.424 119.932 11.472C119.98 11.508 120.004 11.556 120.004 11.616V23.784C120.004 23.844 119.98 23.898 119.932 23.946C119.896 23.982 119.848 24 119.788 24H117.682C117.622 24 117.568 23.982 117.52 23.946C117.484 23.898 117.466 23.844 117.466 23.784V18.816C117.466 18.756 117.436 18.726 117.376 18.726H113.398C113.338 18.726 113.308 18.756 113.308 18.816V23.784C113.308 23.844 113.284 23.898 113.236 23.946C113.2 23.982 113.152 24 113.092 24H110.986C110.926 24 110.872 23.982 110.824 23.946C110.788 23.898 110.77 23.844 110.77 23.784V11.616C110.77 11.556 110.788 11.508 110.824 11.472C110.872 11.424 110.926 11.4 110.986 11.4H113.092C113.152 11.4 113.2 11.424 113.236 11.472C113.284 11.508 113.308 11.556 113.308 11.616V16.458C113.308 16.518 113.338 16.548 113.398 16.548H117.376C117.436 16.548 117.466 16.518 117.466 16.458V11.616ZM122.289 24C122.229 24 122.175 23.982 122.127 23.946C122.091 23.898 122.073 23.844 122.073 23.784V11.616C122.073 11.556 122.091 11.508 122.127 11.472C122.175 11.424 122.229 11.4 122.289 11.4H124.395C124.455 11.4 124.503 11.424 124.539 11.472C124.587 11.508 124.611 11.556 124.611 11.616V23.784C124.611 23.844 124.587 23.898 124.539 23.946C124.503 23.982 124.455 24 124.395 24H122.289ZM127.017 24C126.957 24 126.903 23.982 126.855 23.946C126.819 23.898 126.801 23.844 126.801 23.784V11.616C126.801 11.556 126.819 11.508 126.855 11.472C126.903 11.424 126.957 11.4 127.017 11.4H129.123C129.183 11.4 129.231 11.424 129.267 11.472C129.315 11.508 129.339 11.556 129.339 11.616V16.656C129.339 16.692 129.351 16.716 129.375 16.728C129.399 16.728 129.423 16.716 129.447 16.692L133.605 11.526C133.677 11.442 133.767 11.4 133.875 11.4H136.251C136.347 11.4 136.407 11.43 136.431 11.49C136.455 11.538 136.443 11.598 136.395 11.67L132.381 16.8C132.345 16.848 132.339 16.89 132.363 16.926L136.611 23.748C136.635 23.82 136.647 23.862 136.647 23.874C136.647 23.958 136.587 24 136.467 24H134.091C133.971 24 133.887 23.952 133.839 23.856L130.635 18.672C130.623 18.648 130.605 18.636 130.581 18.636C130.557 18.636 130.533 18.648 130.509 18.672L129.375 20.094C129.351 20.142 129.339 20.178 129.339 20.202V23.784C129.339 23.844 129.315 23.898 129.267 23.946C129.231 23.982 129.183 24 129.123 24H127.017Z" fill="black"/>
<path d="M61.456 35.064C61.056 35.064 60.704 34.9867 60.4 34.832C60.096 34.672 59.8613 34.4507 59.696 34.168C59.5307 33.8853 59.448 33.5573 59.448 33.184V31.208C59.448 30.8347 59.5307 30.5067 59.696 30.224C59.8613 29.9413 60.096 29.7227 60.4 29.568C60.704 29.4133 61.056 29.336 61.456 29.336C61.8507 29.336 62.2 29.4107 62.504 29.56C62.808 29.7093 63.0427 29.92 63.208 30.192C63.3733 30.464 63.456 30.7787 63.456 31.136C63.456 31.1627 63.4453 31.1867 63.424 31.208C63.408 31.224 63.3867 31.232 63.36 31.232L62.624 31.272C62.56 31.272 62.528 31.2427 62.528 31.184C62.528 30.8693 62.4293 30.616 62.232 30.424C62.04 30.232 61.7813 30.136 61.456 30.136C61.1307 30.136 60.8693 30.232 60.672 30.424C60.4747 30.616 60.376 30.8693 60.376 31.184V33.224C60.376 33.5333 60.4747 33.784 60.672 33.976C60.8693 34.168 61.1307 34.264 61.456 34.264C61.7813 34.264 62.04 34.1707 62.232 33.984C62.4293 33.792 62.528 33.5387 62.528 33.224C62.528 33.1653 62.56 33.136 62.624 33.136L63.36 33.168C63.3867 33.168 63.408 33.176 63.424 33.192C63.4453 33.208 63.456 33.2267 63.456 33.248C63.456 33.6107 63.3733 33.9307 63.208 34.208C63.0427 34.48 62.808 34.6907 62.504 34.84C62.2 34.9893 61.8507 35.064 61.456 35.064ZM67.4992 29.496C67.4992 29.4693 67.5072 29.448 67.5232 29.432C67.5445 29.4107 67.5685 29.4 67.5952 29.4H68.3312C68.3579 29.4 68.3792 29.4107 68.3952 29.432C68.4165 29.448 68.4272 29.4693 68.4272 29.496V34.904C68.4272 34.9307 68.4165 34.9547 68.3952 34.976C68.3792 34.992 68.3579 35 68.3312 35H67.5952C67.5685 35 67.5445 34.992 67.5232 34.976C67.5072 34.9547 67.4992 34.9307 67.4992 34.904V32.616C67.4992 32.5893 67.4859 32.576 67.4592 32.576H65.4192C65.3925 32.576 65.3792 32.5893 65.3792 32.616V34.904C65.3792 34.9307 65.3685 34.9547 65.3472 34.976C65.3312 34.992 65.3099 35 65.2832 35H64.5472C64.5205 35 64.4965 34.992 64.4752 34.976C64.4592 34.9547 64.4512 34.9307 64.4512 34.904V29.496C64.4512 29.4693 64.4592 29.448 64.4752 29.432C64.4965 29.4107 64.5205 29.4 64.5472 29.4H65.2832C65.3099 29.4 65.3312 29.4107 65.3472 29.432C65.3685 29.448 65.3792 29.4693 65.3792 29.496V31.736C65.3792 31.7627 65.3925 31.776 65.4192 31.776H67.4592C67.4859 31.776 67.4992 31.7627 67.4992 31.736V29.496ZM73.0482 35C72.9949 35 72.9602 34.9733 72.9442 34.92L72.6802 34.064C72.6695 34.0427 72.6562 34.032 72.6402 34.032H70.5282C70.5122 34.032 70.4989 34.0427 70.4882 34.064L70.2242 34.92C70.2082 34.9733 70.1735 35 70.1202 35H69.3202C69.2882 35 69.2642 34.992 69.2482 34.976C69.2322 34.9547 69.2295 34.9253 69.2402 34.888L70.9762 29.48C70.9922 29.4267 71.0269 29.4 71.0802 29.4H72.0802C72.1335 29.4 72.1682 29.4267 72.1842 29.48L73.9282 34.888C73.9335 34.8987 73.9362 34.912 73.9362 34.928C73.9362 34.976 73.9069 35 73.8482 35H73.0482ZM70.7362 33.256C70.7309 33.288 70.7415 33.304 70.7682 33.304H72.3922C72.4242 33.304 72.4349 33.288 72.4242 33.256L71.6002 30.576C71.5949 30.5547 71.5869 30.544 71.5762 30.544C71.5655 30.544 71.5575 30.5547 71.5522 30.576L70.7362 33.256ZM77.9077 35C77.8544 35 77.817 34.976 77.7957 34.928L76.7397 32.624C76.729 32.6027 76.713 32.592 76.6917 32.592H75.7317C75.705 32.592 75.6917 32.6053 75.6917 32.632V34.904C75.6917 34.9307 75.681 34.9547 75.6597 34.976C75.6437 34.992 75.6224 35 75.5957 35H74.8597C74.833 35 74.809 34.992 74.7877 34.976C74.7717 34.9547 74.7637 34.9307 74.7637 34.904V29.496C74.7637 29.4693 74.7717 29.448 74.7877 29.432C74.809 29.4107 74.833 29.4 74.8597 29.4H77.0597C77.385 29.4 77.673 29.4693 77.9237 29.608C78.1744 29.7413 78.369 29.9333 78.5077 30.184C78.6464 30.4293 78.7157 30.712 78.7157 31.032C78.7157 31.4 78.6197 31.7147 78.4277 31.976C78.241 32.232 77.9797 32.4107 77.6437 32.512C77.633 32.512 77.625 32.5173 77.6197 32.528C77.6144 32.5387 77.6144 32.5493 77.6197 32.56L78.7477 34.888C78.7584 34.9093 78.7637 34.9253 78.7637 34.936C78.7637 34.9787 78.7344 35 78.6757 35H77.9077ZM75.7317 30.2C75.705 30.2 75.6917 30.2133 75.6917 30.24V31.832C75.6917 31.8587 75.705 31.872 75.7317 31.872H76.9317C77.1877 31.872 77.393 31.7973 77.5477 31.648C77.7077 31.4933 77.7877 31.2907 77.7877 31.04C77.7877 30.7893 77.7077 30.5867 77.5477 30.432C77.393 30.2773 77.1877 30.2 76.9317 30.2H75.7317ZM79.7659 35C79.7393 35 79.7153 34.992 79.6939 34.976C79.6779 34.9547 79.6699 34.9307 79.6699 34.904V29.496C79.6699 29.4693 79.6779 29.448 79.6939 29.432C79.7153 29.4107 79.7393 29.4 79.7659 29.4H80.5019C80.5286 29.4 80.5499 29.4107 80.5659 29.432C80.5873 29.448 80.5979 29.4693 80.5979 29.496V34.904C80.5979 34.9307 80.5873 34.9547 80.5659 34.976C80.5499 34.992 80.5286 35 80.5019 35H79.7659ZM85.4437 29.4C85.4704 29.4 85.4917 29.4107 85.5077 29.432C85.529 29.448 85.5397 29.4693 85.5397 29.496V30.112C85.5397 30.1387 85.529 30.1627 85.5077 30.184C85.4917 30.2 85.4704 30.208 85.4437 30.208H83.9717C83.945 30.208 83.9317 30.2213 83.9317 30.248V34.904C83.9317 34.9307 83.921 34.9547 83.8997 34.976C83.8837 34.992 83.8624 35 83.8357 35H83.0997C83.073 35 83.049 34.992 83.0277 34.976C83.0117 34.9547 83.0037 34.9307 83.0037 34.904V30.248C83.0037 30.2213 82.9904 30.208 82.9637 30.208H81.5477C81.521 30.208 81.497 30.2 81.4757 30.184C81.4597 30.1627 81.4517 30.1387 81.4517 30.112V29.496C81.4517 29.4693 81.4597 29.448 81.4757 29.432C81.497 29.4107 81.521 29.4 81.5477 29.4H85.4437ZM89.3841 35C89.3308 35 89.2961 34.9733 89.2801 34.92L89.0161 34.064C89.0055 34.0427 88.9921 34.032 88.9761 34.032H86.8641C86.8481 34.032 86.8348 34.0427 86.8241 34.064L86.5601 34.92C86.5441 34.9733 86.5095 35 86.4561 35H85.6561C85.6241 35 85.6001 34.992 85.5841 34.976C85.5681 34.9547 85.5655 34.9253 85.5761 34.888L87.3121 29.48C87.3281 29.4267 87.3628 29.4 87.4161 29.4H88.4161C88.4695 29.4 88.5041 29.4267 88.5201 29.48L90.2641 34.888C90.2695 34.8987 90.2721 34.912 90.2721 34.928C90.2721 34.976 90.2428 35 90.1841 35H89.3841ZM87.0721 33.256C87.0668 33.288 87.0775 33.304 87.1041 33.304H88.7281C88.7601 33.304 88.7708 33.288 88.7601 33.256L87.9361 30.576C87.9308 30.5547 87.9228 30.544 87.9121 30.544C87.9015 30.544 87.8935 30.5547 87.8881 30.576L87.0721 33.256ZM94.2276 32.08C94.1956 32.096 94.1956 32.112 94.2276 32.128C94.7716 32.384 95.0436 32.824 95.0436 33.448C95.0436 33.9547 94.873 34.3413 94.5316 34.608C94.1956 34.8693 93.7556 35 93.2116 35H91.1956C91.169 35 91.145 34.992 91.1236 34.976C91.1076 34.9547 91.0996 34.9307 91.0996 34.904V29.496C91.0996 29.4693 91.1076 29.448 91.1236 29.432C91.145 29.4107 91.169 29.4 91.1956 29.4H93.1476C93.729 29.4 94.177 29.5253 94.4916 29.776C94.8063 30.0267 94.9636 30.4053 94.9636 30.912C94.9636 31.472 94.7183 31.8613 94.2276 32.08ZM92.0676 30.2C92.041 30.2 92.0276 30.2133 92.0276 30.24V31.72C92.0276 31.7467 92.041 31.76 92.0676 31.76H93.1476C93.4303 31.76 93.6516 31.6933 93.8116 31.56C93.977 31.4213 94.0596 31.232 94.0596 30.992C94.0596 30.7467 93.977 30.5547 93.8116 30.416C93.6516 30.272 93.4303 30.2 93.1476 30.2H92.0676ZM93.2116 34.192C93.489 34.192 93.7076 34.1173 93.8676 33.968C94.033 33.8187 94.1156 33.616 94.1156 33.36C94.1156 33.0987 94.033 32.896 93.8676 32.752C93.7023 32.6027 93.4783 32.528 93.1956 32.528H92.0676C92.041 32.528 92.0276 32.5413 92.0276 32.568V34.152C92.0276 34.1787 92.041 34.192 92.0676 34.192H93.2116ZM96.1722 35C96.1455 35 96.1215 34.992 96.1002 34.976C96.0842 34.9547 96.0762 34.9307 96.0762 34.904V29.496C96.0762 29.4693 96.0842 29.448 96.1002 29.432C96.1215 29.4107 96.1455 29.4 96.1722 29.4H96.9082C96.9349 29.4 96.9562 29.4107 96.9722 29.432C96.9935 29.448 97.0042 29.4693 97.0042 29.496V34.16C97.0042 34.1867 97.0175 34.2 97.0442 34.2H99.7242C99.7509 34.2 99.7722 34.2107 99.7882 34.232C99.8095 34.248 99.8202 34.2693 99.8202 34.296V34.904C99.8202 34.9307 99.8095 34.9547 99.7882 34.976C99.7722 34.992 99.7509 35 99.7242 35H96.1722ZM104.439 30.104C104.439 30.1307 104.428 30.1547 104.407 30.176C104.391 30.192 104.369 30.2 104.343 30.2H101.615C101.588 30.2 101.575 30.2133 101.575 30.24V31.736C101.575 31.7627 101.588 31.776 101.615 31.776H103.447C103.473 31.776 103.495 31.7867 103.511 31.808C103.532 31.824 103.543 31.8453 103.543 31.872V32.48C103.543 32.5067 103.532 32.5307 103.511 32.552C103.495 32.568 103.473 32.576 103.447 32.576H101.615C101.588 32.576 101.575 32.5893 101.575 32.616V34.16C101.575 34.1867 101.588 34.2 101.615 34.2H104.343C104.369 34.2 104.391 34.2107 104.407 34.232C104.428 34.248 104.439 34.2693 104.439 34.296V34.904C104.439 34.9307 104.428 34.9547 104.407 34.976C104.391 34.992 104.369 35 104.343 35H100.743C100.716 35 100.692 34.992 100.671 34.976C100.655 34.9547 100.647 34.9307 100.647 34.904V29.496C100.647 29.4693 100.655 29.448 100.671 29.432C100.692 29.4107 100.716 29.4 100.743 29.4H104.343C104.369 29.4 104.391 29.4107 104.407 29.432C104.428 29.448 104.439 29.4693 104.439 29.496V30.104ZM110.662 29.4C110.689 29.4 110.71 29.4107 110.726 29.432C110.748 29.448 110.758 29.4693 110.758 29.496V30.112C110.758 30.1387 110.748 30.1627 110.726 30.184C110.71 30.2 110.689 30.208 110.662 30.208H109.19C109.164 30.208 109.15 30.2213 109.15 30.248V34.904C109.15 34.9307 109.14 34.9547 109.118 34.976C109.102 34.992 109.081 35 109.054 35H108.318C108.292 35 108.268 34.992 108.246 34.976C108.23 34.9547 108.222 34.9307 108.222 34.904V30.248C108.222 30.2213 108.209 30.208 108.182 30.208H106.766C106.74 30.208 106.716 30.2 106.694 30.184C106.678 30.1627 106.67 30.1387 106.67 30.112V29.496C106.67 29.4693 106.678 29.448 106.694 29.432C106.716 29.4107 106.74 29.4 106.766 29.4H110.662ZM114.759 35C114.706 35 114.669 34.976 114.647 34.928L113.591 32.624C113.581 32.6027 113.565 32.592 113.543 32.592H112.583C112.557 32.592 112.543 32.6053 112.543 32.632V34.904C112.543 34.9307 112.533 34.9547 112.511 34.976C112.495 34.992 112.474 35 112.447 35H111.711C111.685 35 111.661 34.992 111.639 34.976C111.623 34.9547 111.615 34.9307 111.615 34.904V29.496C111.615 29.4693 111.623 29.448 111.639 29.432C111.661 29.4107 111.685 29.4 111.711 29.4H113.911C114.237 29.4 114.525 29.4693 114.775 29.608C115.026 29.7413 115.221 29.9333 115.359 30.184C115.498 30.4293 115.567 30.712 115.567 31.032C115.567 31.4 115.471 31.7147 115.279 31.976C115.093 32.232 114.831 32.4107 114.495 32.512C114.485 32.512 114.477 32.5173 114.471 32.528C114.466 32.5387 114.466 32.5493 114.471 32.56L115.599 34.888C115.61 34.9093 115.615 34.9253 115.615 34.936C115.615 34.9787 115.586 35 115.527 35H114.759ZM112.583 30.2C112.557 30.2 112.543 30.2133 112.543 30.24V31.832C112.543 31.8587 112.557 31.872 112.583 31.872H113.783C114.039 31.872 114.245 31.7973 114.399 31.648C114.559 31.4933 114.639 31.2907 114.639 31.04C114.639 30.7893 114.559 30.5867 114.399 30.432C114.245 30.2773 114.039 30.2 113.783 30.2H112.583ZM118.482 35.064C118.087 35.064 117.738 34.9867 117.434 34.832C117.13 34.6773 116.892 34.4587 116.722 34.176C116.556 33.888 116.474 33.5573 116.474 33.184V29.496C116.474 29.4693 116.482 29.448 116.498 29.432C116.519 29.4107 116.543 29.4 116.57 29.4H117.306C117.332 29.4 117.354 29.4107 117.37 29.432C117.391 29.448 117.402 29.4693 117.402 29.496V33.2C117.402 33.5147 117.5 33.7707 117.698 33.968C117.895 34.1653 118.156 34.264 118.482 34.264C118.807 34.264 119.068 34.1653 119.266 33.968C119.463 33.7707 119.562 33.5147 119.562 33.2V29.496C119.562 29.4693 119.57 29.448 119.586 29.432C119.607 29.4107 119.631 29.4 119.658 29.4H120.394C120.42 29.4 120.442 29.4107 120.457 29.432C120.479 29.448 120.49 29.4693 120.49 29.496V33.184C120.49 33.5573 120.407 33.888 120.242 34.176C120.076 34.4587 119.842 34.6773 119.538 34.832C119.234 34.9867 118.882 35.064 118.482 35.064ZM123.415 35.064C122.999 35.064 122.637 34.9973 122.327 34.864C122.018 34.7307 121.778 34.544 121.607 34.304C121.442 34.064 121.359 33.7813 121.359 33.456V33.256C121.359 33.2293 121.367 33.208 121.383 33.192C121.405 33.1707 121.429 33.16 121.455 33.16H122.167C122.194 33.16 122.215 33.1707 122.231 33.192C122.253 33.208 122.263 33.2293 122.263 33.256V33.408C122.263 33.6533 122.373 33.8587 122.591 34.024C122.81 34.184 123.109 34.264 123.487 34.264C123.813 34.264 124.058 34.1947 124.223 34.056C124.389 33.9173 124.471 33.7387 124.471 33.52C124.471 33.3707 124.426 33.2453 124.335 33.144C124.245 33.0373 124.114 32.9413 123.943 32.856C123.778 32.7707 123.527 32.664 123.191 32.536C122.813 32.3973 122.506 32.2667 122.271 32.144C122.037 32.0213 121.839 31.856 121.679 31.648C121.525 31.4347 121.447 31.1707 121.447 30.856C121.447 30.3867 121.618 30.016 121.959 29.744C122.301 29.472 122.757 29.336 123.327 29.336C123.727 29.336 124.079 29.4053 124.383 29.544C124.693 29.6827 124.933 29.8773 125.103 30.128C125.274 30.3733 125.359 30.6587 125.359 30.984V31.12C125.359 31.1467 125.349 31.1707 125.327 31.192C125.311 31.208 125.29 31.216 125.263 31.216H124.543C124.517 31.216 124.493 31.208 124.471 31.192C124.455 31.1707 124.447 31.1467 124.447 31.12V31.032C124.447 30.7813 124.343 30.5707 124.135 30.4C123.933 30.224 123.65 30.136 123.287 30.136C122.994 30.136 122.765 30.1973 122.599 30.32C122.439 30.4427 122.359 30.616 122.359 30.84C122.359 31 122.402 31.1307 122.487 31.232C122.573 31.3333 122.701 31.4267 122.871 31.512C123.042 31.592 123.306 31.696 123.663 31.824C124.042 31.968 124.343 32.0987 124.567 32.216C124.797 32.3333 124.991 32.4987 125.151 32.712C125.317 32.92 125.399 33.1813 125.399 33.496C125.399 33.976 125.221 34.3573 124.863 34.64C124.511 34.9227 124.029 35.064 123.415 35.064ZM129.912 29.4C129.939 29.4 129.96 29.4107 129.976 29.432C129.998 29.448 130.008 29.4693 130.008 29.496V30.112C130.008 30.1387 129.998 30.1627 129.976 30.184C129.96 30.2 129.939 30.208 129.912 30.208H128.44C128.414 30.208 128.4 30.2213 128.4 30.248V34.904C128.4 34.9307 128.39 34.9547 128.368 34.976C128.352 34.992 128.331 35 128.304 35H127.568C127.542 35 127.518 34.992 127.496 34.976C127.48 34.9547 127.472 34.9307 127.472 34.904V30.248C127.472 30.2213 127.459 30.208 127.432 30.208H126.016C125.99 30.208 125.966 30.2 125.944 30.184C125.928 30.1627 125.92 30.1387 125.92 30.112V29.496C125.92 29.4693 125.928 29.448 125.944 29.432C125.966 29.4107 125.99 29.4 126.016 29.4H129.912Z" fill="black"/>
</svg>
