<svg width="203" height="64" viewBox="0 0 203 64" fill="none" xmlns="http://www.w3.org/2000/svg">
<path d="M59.2026 37.6602L34.9401 61.2405V56.2224L53.4879 37.6602L36.093 17.6365V11.4978L59.2026 37.6602Z" fill="#EB9309"/>
<path d="M5.91525 25.9675L24.2625 7.01562V1.26671L0 25.9675L23.1096 51.3991V45.4554L5.91525 25.9675Z" fill="#EB9309"/>
<path d="M34.9401 0L11.63 23.9213H17.3948L34.9401 5.94379L52.5354 25.2367H58.2502L34.9401 0Z" fill="#7FB432"/>
<path d="M33.6367 37.4653H25.215V50.2786L33.6367 41.168V37.4653Z" fill="#EB9309"/>
<path d="M33.8874 11.4978L25.0646 20.3648V24.847H33.8874V11.4978Z" fill="#EB9309"/>
<path d="M1.35349 37.6602L24.2625 63.0918L48.1241 37.6602H42.2088L24.2625 56.2224L7.06822 37.6602H1.35349Z" fill="#7FB432"/>
<path d="M39.3514 25.9675L46.9711 36.3448H20.2522L11.63 25.9675H24.8641H39.3514Z" fill="#7FB432"/>
<path d="M72.6388 35.1169C71.3055 35.1169 70.1388 34.9085 69.1388 34.4919C68.1388 34.0585 67.3638 33.4502 66.8138 32.6669C66.2805 31.8669 66.0138 30.9419 66.0138 29.8919V29.3419C66.0138 29.2585 66.0388 29.1919 66.0888 29.1419C66.1555 29.0752 66.2305 29.0419 66.3138 29.0419H69.1638C69.2471 29.0419 69.3138 29.0752 69.3638 29.1419C69.4305 29.1919 69.4638 29.2585 69.4638 29.3419V29.7169C69.4638 30.3835 69.7721 30.9502 70.3888 31.4169C71.0055 31.8669 71.8388 32.0919 72.8888 32.0919C73.7721 32.0919 74.4305 31.9085 74.8638 31.5419C75.2971 31.1585 75.5138 30.6919 75.5138 30.1419C75.5138 29.7419 75.3805 29.4085 75.1138 29.1419C74.8471 28.8585 74.4805 28.6169 74.0138 28.4169C73.5638 28.2002 72.8388 27.9085 71.8388 27.5419C70.7221 27.1585 69.7721 26.7669 68.9888 26.3669C68.2221 25.9669 67.5721 25.4252 67.0388 24.7419C66.5221 24.0419 66.2638 23.1835 66.2638 22.1669C66.2638 21.1669 66.5221 20.2919 67.0388 19.5419C67.5555 18.7919 68.2721 18.2169 69.1888 17.8169C70.1055 17.4169 71.1638 17.2169 72.3638 17.2169C73.6305 17.2169 74.7555 17.4419 75.7388 17.8919C76.7388 18.3419 77.5138 18.9752 78.0638 19.7919C78.6305 20.5919 78.9138 21.5252 78.9138 22.5919V22.9669C78.9138 23.0502 78.8805 23.1252 78.8138 23.1919C78.7638 23.2419 78.6971 23.2669 78.6138 23.2669H75.7388C75.6555 23.2669 75.5805 23.2419 75.5138 23.1919C75.4638 23.1252 75.4388 23.0502 75.4388 22.9669V22.7669C75.4388 22.0669 75.1471 21.4752 74.5638 20.9919C73.9971 20.4919 73.2138 20.2419 72.2138 20.2419C71.4305 20.2419 70.8138 20.4085 70.3638 20.7419C69.9305 21.0752 69.7138 21.5335 69.7138 22.1169C69.7138 22.5335 69.8388 22.8835 70.0888 23.1669C70.3555 23.4502 70.7388 23.7085 71.2388 23.9419C71.7555 24.1585 72.5471 24.4585 73.6138 24.8419C74.7971 25.2752 75.7221 25.6585 76.3888 25.9919C77.0721 26.3252 77.6805 26.8252 78.2138 27.4919C78.7638 28.1419 79.0388 28.9919 79.0388 30.0419C79.0388 31.6085 78.4638 32.8502 77.3138 33.7669C76.1638 34.6669 74.6055 35.1169 72.6388 35.1169ZM84.8449 34.9169C84.6615 34.9169 84.5449 34.8335 84.4949 34.6669L80.0699 17.7419L80.0449 17.6419C80.0449 17.4919 80.1365 17.4169 80.3199 17.4169H83.4199C83.5865 17.4169 83.6949 17.5002 83.7449 17.6669L86.1199 27.8419C86.1365 27.9085 86.1615 27.9419 86.1949 27.9419C86.2282 27.9419 86.2532 27.9085 86.2699 27.8419L88.5699 17.6919C88.6199 17.5085 88.7282 17.4169 88.8949 17.4169H91.9199C92.1032 17.4169 92.2199 17.5002 92.2699 17.6669L94.7699 27.8419C94.7865 27.8919 94.8115 27.9252 94.8449 27.9419C94.8782 27.9419 94.9032 27.9085 94.9199 27.8419L97.2199 17.6919C97.2699 17.5085 97.3782 17.4169 97.5449 17.4169H100.495C100.728 17.4169 100.82 17.5252 100.77 17.7419L96.6699 34.6669C96.6199 34.8335 96.5032 34.9169 96.3199 34.9169H93.3449C93.1782 34.9169 93.0699 34.8335 93.0199 34.6669L90.4699 23.8419C90.4532 23.7752 90.4282 23.7419 90.3949 23.7419C90.3615 23.7419 90.3365 23.7752 90.3199 23.8419L87.9449 34.6419C87.9115 34.8252 87.8032 34.9169 87.6199 34.9169H84.8449ZM111.504 34.9169C111.337 34.9169 111.229 34.8335 111.179 34.6669L110.429 32.2169C110.396 32.1502 110.354 32.1169 110.304 32.1169H104.154C104.104 32.1169 104.062 32.1502 104.029 32.2169L103.304 34.6669C103.254 34.8335 103.146 34.9169 102.979 34.9169H99.804C99.704 34.9169 99.629 34.8919 99.579 34.8419C99.529 34.7752 99.5207 34.6835 99.554 34.5669L104.954 17.6669C105.004 17.5002 105.112 17.4169 105.279 17.4169H109.204C109.371 17.4169 109.479 17.5002 109.529 17.6669L114.929 34.5669C114.946 34.6002 114.954 34.6419 114.954 34.6919C114.954 34.8419 114.862 34.9169 114.679 34.9169H111.504ZM104.929 29.2419C104.912 29.3419 104.946 29.3919 105.029 29.3919H109.429C109.529 29.3919 109.562 29.3419 109.529 29.2419L107.279 21.8169C107.262 21.7502 107.237 21.7252 107.204 21.7419C107.171 21.7419 107.146 21.7669 107.129 21.8169L104.929 29.2419ZM122.053 35.1169C120.72 35.1169 119.553 34.9085 118.553 34.4919C117.553 34.0585 116.778 33.4502 116.228 32.6669C115.695 31.8669 115.428 30.9419 115.428 29.8919V29.3419C115.428 29.2585 115.453 29.1919 115.503 29.1419C115.57 29.0752 115.645 29.0419 115.728 29.0419H118.578C118.661 29.0419 118.728 29.0752 118.778 29.1419C118.845 29.1919 118.878 29.2585 118.878 29.3419V29.7169C118.878 30.3835 119.186 30.9502 119.803 31.4169C120.42 31.8669 121.253 32.0919 122.303 32.0919C123.186 32.0919 123.845 31.9085 124.278 31.5419C124.711 31.1585 124.928 30.6919 124.928 30.1419C124.928 29.7419 124.795 29.4085 124.528 29.1419C124.261 28.8585 123.895 28.6169 123.428 28.4169C122.978 28.2002 122.253 27.9085 121.253 27.5419C120.136 27.1585 119.186 26.7669 118.403 26.3669C117.636 25.9669 116.986 25.4252 116.453 24.7419C115.936 24.0419 115.678 23.1835 115.678 22.1669C115.678 21.1669 115.936 20.2919 116.453 19.5419C116.97 18.7919 117.686 18.2169 118.603 17.8169C119.52 17.4169 120.578 17.2169 121.778 17.2169C123.045 17.2169 124.17 17.4419 125.153 17.8919C126.153 18.3419 126.928 18.9752 127.478 19.7919C128.045 20.5919 128.328 21.5252 128.328 22.5919V22.9669C128.328 23.0502 128.295 23.1252 128.228 23.1919C128.178 23.2419 128.111 23.2669 128.028 23.2669H125.153C125.07 23.2669 124.995 23.2419 124.928 23.1919C124.878 23.1252 124.853 23.0502 124.853 22.9669V22.7669C124.853 22.0669 124.561 21.4752 123.978 20.9919C123.411 20.4919 122.628 20.2419 121.628 20.2419C120.845 20.2419 120.228 20.4085 119.778 20.7419C119.345 21.0752 119.128 21.5335 119.128 22.1169C119.128 22.5335 119.253 22.8835 119.503 23.1669C119.77 23.4502 120.153 23.7085 120.653 23.9419C121.17 24.1585 121.961 24.4585 123.028 24.8419C124.211 25.2752 125.136 25.6585 125.803 25.9919C126.486 26.3252 127.095 26.8252 127.628 27.4919C128.178 28.1419 128.453 28.9919 128.453 30.0419C128.453 31.6085 127.878 32.8502 126.728 33.7669C125.578 34.6669 124.02 35.1169 122.053 35.1169ZM142.801 17.4169C142.884 17.4169 142.951 17.4502 143.001 17.5169C143.067 17.5669 143.101 17.6335 143.101 17.7169V20.1669C143.101 20.2502 143.067 20.3252 143.001 20.3919C142.951 20.4419 142.884 20.4669 142.801 20.4669H138.326C138.242 20.4669 138.201 20.5085 138.201 20.5919V34.6169C138.201 34.7002 138.167 34.7752 138.101 34.8419C138.051 34.8919 137.984 34.9169 137.901 34.9169H134.976C134.892 34.9169 134.817 34.8919 134.751 34.8419C134.701 34.7752 134.676 34.7002 134.676 34.6169V20.5919C134.676 20.5085 134.634 20.4669 134.551 20.4669H130.201C130.117 20.4669 130.042 20.4419 129.976 20.3919C129.926 20.3252 129.901 20.2502 129.901 20.1669V17.7169C129.901 17.6335 129.926 17.5669 129.976 17.5169C130.042 17.4502 130.117 17.4169 130.201 17.4169H142.801ZM154.65 17.7169C154.65 17.6335 154.675 17.5669 154.725 17.5169C154.791 17.4502 154.866 17.4169 154.95 17.4169H157.875C157.958 17.4169 158.025 17.4502 158.075 17.5169C158.141 17.5669 158.175 17.6335 158.175 17.7169V34.6169C158.175 34.7002 158.141 34.7752 158.075 34.8419C158.025 34.8919 157.958 34.9169 157.875 34.9169H154.95C154.866 34.9169 154.791 34.8919 154.725 34.8419C154.675 34.7752 154.65 34.7002 154.65 34.6169V27.7169C154.65 27.6335 154.608 27.5919 154.525 27.5919H149C148.916 27.5919 148.875 27.6335 148.875 27.7169V34.6169C148.875 34.7002 148.841 34.7752 148.775 34.8419C148.725 34.8919 148.658 34.9169 148.575 34.9169H145.65C145.566 34.9169 145.491 34.8919 145.425 34.8419C145.375 34.7752 145.35 34.7002 145.35 34.6169V17.7169C145.35 17.6335 145.375 17.5669 145.425 17.5169C145.491 17.4502 145.566 17.4169 145.65 17.4169H148.575C148.658 17.4169 148.725 17.4502 148.775 17.5169C148.841 17.5669 148.875 17.6335 148.875 17.7169V24.4419C148.875 24.5252 148.916 24.5669 149 24.5669H154.525C154.608 24.5669 154.65 24.5252 154.65 24.4419V17.7169ZM161.348 34.9169C161.265 34.9169 161.19 34.8919 161.123 34.8419C161.073 34.7752 161.048 34.7002 161.048 34.6169V17.7169C161.048 17.6335 161.073 17.5669 161.123 17.5169C161.19 17.4502 161.265 17.4169 161.348 17.4169H164.273C164.356 17.4169 164.423 17.4502 164.473 17.5169C164.54 17.5669 164.573 17.6335 164.573 17.7169V34.6169C164.573 34.7002 164.54 34.7752 164.473 34.8419C164.423 34.8919 164.356 34.9169 164.273 34.9169H161.348ZM167.915 34.9169C167.832 34.9169 167.757 34.8919 167.69 34.8419C167.64 34.7752 167.615 34.7002 167.615 34.6169V17.7169C167.615 17.6335 167.64 17.5669 167.69 17.5169C167.757 17.4502 167.832 17.4169 167.915 17.4169H170.84C170.924 17.4169 170.99 17.4502 171.04 17.5169C171.107 17.5669 171.14 17.6335 171.14 17.7169V24.7169C171.14 24.7669 171.157 24.8002 171.19 24.8169C171.224 24.8169 171.257 24.8002 171.29 24.7669L177.065 17.5919C177.165 17.4752 177.29 17.4169 177.44 17.4169H180.74C180.874 17.4169 180.957 17.4585 180.99 17.5419C181.024 17.6085 181.007 17.6919 180.94 17.7919L175.365 24.9169C175.315 24.9835 175.307 25.0419 175.34 25.0919L181.24 34.5669C181.274 34.6669 181.29 34.7252 181.29 34.7419C181.29 34.8585 181.207 34.9169 181.04 34.9169H177.74C177.574 34.9169 177.457 34.8502 177.39 34.7169L172.94 27.5169C172.924 27.4835 172.899 27.4669 172.865 27.4669C172.832 27.4669 172.799 27.4835 172.765 27.5169L171.19 29.4919C171.157 29.5585 171.14 29.6085 171.14 29.6419V34.6169C171.14 34.7002 171.107 34.7752 171.04 34.8419C170.99 34.8919 170.924 34.9169 170.84 34.9169H167.915Z" fill="black"/>
<path d="M74.5293 50.7167C73.9293 50.7167 73.4013 50.6007 72.9453 50.3687C72.4893 50.1287 72.1373 49.7967 71.8893 49.3727C71.6413 48.9487 71.5173 48.4567 71.5173 47.8967V44.9327C71.5173 44.3727 71.6413 43.8807 71.8893 43.4567C72.1373 43.0327 72.4893 42.7047 72.9453 42.4727C73.4013 42.2407 73.9293 42.1247 74.5293 42.1247C75.1213 42.1247 75.6453 42.2367 76.1013 42.4607C76.5573 42.6847 76.9093 43.0007 77.1573 43.4087C77.4053 43.8167 77.5293 44.2887 77.5293 44.8247C77.5293 44.8647 77.5133 44.9007 77.4813 44.9327C77.4573 44.9567 77.4253 44.9687 77.3853 44.9687L76.2813 45.0287C76.1853 45.0287 76.1373 44.9847 76.1373 44.8967C76.1373 44.4247 75.9893 44.0447 75.6933 43.7567C75.4053 43.4687 75.0173 43.3247 74.5293 43.3247C74.0413 43.3247 73.6493 43.4687 73.3533 43.7567C73.0573 44.0447 72.9093 44.4247 72.9093 44.8967V47.9567C72.9093 48.4207 73.0573 48.7967 73.3533 49.0847C73.6493 49.3727 74.0413 49.5167 74.5293 49.5167C75.0173 49.5167 75.4053 49.3767 75.6933 49.0967C75.9893 48.8087 76.1373 48.4287 76.1373 47.9567C76.1373 47.8687 76.1853 47.8247 76.2813 47.8247L77.3853 47.8727C77.4253 47.8727 77.4573 47.8847 77.4813 47.9087C77.5133 47.9327 77.5293 47.9607 77.5293 47.9927C77.5293 48.5367 77.4053 49.0167 77.1573 49.4327C76.9093 49.8407 76.5573 50.1567 76.1013 50.3807C75.6453 50.6047 75.1213 50.7167 74.5293 50.7167ZM83.5941 42.3647C83.5941 42.3247 83.6061 42.2927 83.6301 42.2687C83.6621 42.2367 83.6981 42.2207 83.7381 42.2207H84.8421C84.8821 42.2207 84.9141 42.2367 84.9381 42.2687C84.9701 42.2927 84.9861 42.3247 84.9861 42.3647V50.4767C84.9861 50.5167 84.9701 50.5527 84.9381 50.5847C84.9141 50.6087 84.8821 50.6207 84.8421 50.6207H83.7381C83.6981 50.6207 83.6621 50.6087 83.6301 50.5847C83.6061 50.5527 83.5941 50.5167 83.5941 50.4767V47.0447C83.5941 47.0047 83.5741 46.9847 83.5341 46.9847H80.4741C80.4341 46.9847 80.4141 47.0047 80.4141 47.0447V50.4767C80.4141 50.5167 80.3981 50.5527 80.3661 50.5847C80.3421 50.6087 80.3101 50.6207 80.2701 50.6207H79.1661C79.1261 50.6207 79.0901 50.6087 79.0581 50.5847C79.0341 50.5527 79.0221 50.5167 79.0221 50.4767V42.3647C79.0221 42.3247 79.0341 42.2927 79.0581 42.2687C79.0901 42.2367 79.1261 42.2207 79.1661 42.2207H80.2701C80.3101 42.2207 80.3421 42.2367 80.3661 42.2687C80.3981 42.2927 80.4141 42.3247 80.4141 42.3647V45.7247C80.4141 45.7647 80.4341 45.7847 80.4741 45.7847H83.5341C83.5741 45.7847 83.5941 45.7647 83.5941 45.7247V42.3647ZM91.9176 50.6207C91.8376 50.6207 91.7856 50.5807 91.7616 50.5007L91.3656 49.2167C91.3496 49.1847 91.3296 49.1687 91.3056 49.1687H88.1376C88.1136 49.1687 88.0936 49.1847 88.0776 49.2167L87.6816 50.5007C87.6576 50.5807 87.6056 50.6207 87.5256 50.6207H86.3256C86.2776 50.6207 86.2416 50.6087 86.2176 50.5847C86.1936 50.5527 86.1896 50.5087 86.2056 50.4527L88.8096 42.3407C88.8336 42.2607 88.8856 42.2207 88.9656 42.2207H90.4656C90.5456 42.2207 90.5976 42.2607 90.6216 42.3407L93.2376 50.4527C93.2456 50.4687 93.2496 50.4887 93.2496 50.5127C93.2496 50.5847 93.2056 50.6207 93.1176 50.6207H91.9176ZM88.4496 48.0047C88.4416 48.0527 88.4576 48.0767 88.4976 48.0767H90.9336C90.9816 48.0767 90.9976 48.0527 90.9816 48.0047L89.7456 43.9847C89.7376 43.9527 89.7256 43.9367 89.7096 43.9367C89.6936 43.9367 89.6816 43.9527 89.6736 43.9847L88.4496 48.0047ZM99.2069 50.6207C99.1269 50.6207 99.0709 50.5847 99.0389 50.5127L97.4549 47.0567C97.4389 47.0247 97.4149 47.0087 97.3829 47.0087H95.9429C95.9029 47.0087 95.8829 47.0287 95.8829 47.0687V50.4767C95.8829 50.5167 95.8669 50.5527 95.8349 50.5847C95.8109 50.6087 95.7789 50.6207 95.7389 50.6207H94.6349C94.5949 50.6207 94.5589 50.6087 94.5269 50.5847C94.5029 50.5527 94.4909 50.5167 94.4909 50.4767V42.3647C94.4909 42.3247 94.5029 42.2927 94.5269 42.2687C94.5589 42.2367 94.5949 42.2207 94.6349 42.2207H97.9349C98.4229 42.2207 98.8549 42.3247 99.2309 42.5327C99.6069 42.7327 99.8989 43.0207 100.107 43.3967C100.315 43.7647 100.419 44.1887 100.419 44.6687C100.419 45.2207 100.275 45.6927 99.9869 46.0847C99.7069 46.4687 99.3149 46.7367 98.8109 46.8887C98.7949 46.8887 98.7829 46.8967 98.7749 46.9127C98.7669 46.9287 98.7669 46.9447 98.7749 46.9607L100.467 50.4527C100.483 50.4847 100.491 50.5087 100.491 50.5247C100.491 50.5887 100.447 50.6207 100.359 50.6207H99.2069ZM95.9429 43.4207C95.9029 43.4207 95.8829 43.4407 95.8829 43.4807V45.8687C95.8829 45.9087 95.9029 45.9287 95.9429 45.9287H97.7429C98.1269 45.9287 98.4349 45.8167 98.6669 45.5927C98.9069 45.3607 99.0269 45.0567 99.0269 44.6807C99.0269 44.3047 98.9069 44.0007 98.6669 43.7687C98.4349 43.5367 98.1269 43.4207 97.7429 43.4207H95.9429ZM101.994 50.6207C101.954 50.6207 101.918 50.6087 101.886 50.5847C101.862 50.5527 101.85 50.5167 101.85 50.4767V42.3647C101.85 42.3247 101.862 42.2927 101.886 42.2687C101.918 42.2367 101.954 42.2207 101.994 42.2207H103.098C103.138 42.2207 103.17 42.2367 103.194 42.2687C103.226 42.2927 103.242 42.3247 103.242 42.3647V50.4767C103.242 50.5167 103.226 50.5527 103.194 50.5847C103.17 50.6087 103.138 50.6207 103.098 50.6207H101.994ZM110.511 42.2207C110.551 42.2207 110.583 42.2367 110.607 42.2687C110.639 42.2927 110.655 42.3247 110.655 42.3647V43.2887C110.655 43.3287 110.639 43.3647 110.607 43.3967C110.583 43.4207 110.551 43.4327 110.511 43.4327H108.303C108.263 43.4327 108.243 43.4527 108.243 43.4927V50.4767C108.243 50.5167 108.227 50.5527 108.195 50.5847C108.171 50.6087 108.139 50.6207 108.099 50.6207H106.995C106.955 50.6207 106.919 50.6087 106.887 50.5847C106.863 50.5527 106.851 50.5167 106.851 50.4767V43.4927C106.851 43.4527 106.831 43.4327 106.791 43.4327H104.667C104.627 43.4327 104.591 43.4207 104.559 43.3967C104.535 43.3647 104.523 43.3287 104.523 43.2887V42.3647C104.523 42.3247 104.535 42.2927 104.559 42.2687C104.591 42.2367 104.627 42.2207 104.667 42.2207H110.511ZM116.422 50.6207C116.342 50.6207 116.29 50.5807 116.266 50.5007L115.87 49.2167C115.854 49.1847 115.834 49.1687 115.81 49.1687H112.642C112.618 49.1687 112.598 49.1847 112.582 49.2167L112.186 50.5007C112.162 50.5807 112.11 50.6207 112.03 50.6207H110.83C110.782 50.6207 110.746 50.6087 110.722 50.5847C110.698 50.5527 110.694 50.5087 110.71 50.4527L113.314 42.3407C113.338 42.2607 113.39 42.2207 113.47 42.2207H114.97C115.05 42.2207 115.102 42.2607 115.126 42.3407L117.742 50.4527C117.75 50.4687 117.754 50.4887 117.754 50.5127C117.754 50.5847 117.71 50.6207 117.622 50.6207H116.422ZM112.954 48.0047C112.946 48.0527 112.962 48.0767 113.002 48.0767H115.438C115.486 48.0767 115.502 48.0527 115.486 48.0047L114.25 43.9847C114.242 43.9527 114.23 43.9367 114.214 43.9367C114.198 43.9367 114.186 43.9527 114.178 43.9847L112.954 48.0047ZM123.687 46.2407C123.639 46.2647 123.639 46.2887 123.687 46.3127C124.503 46.6967 124.911 47.3567 124.911 48.2927C124.911 49.0527 124.655 49.6327 124.143 50.0327C123.639 50.4247 122.979 50.6207 122.163 50.6207H119.139C119.099 50.6207 119.063 50.6087 119.031 50.5847C119.007 50.5527 118.995 50.5167 118.995 50.4767V42.3647C118.995 42.3247 119.007 42.2927 119.031 42.2687C119.063 42.2367 119.099 42.2207 119.139 42.2207H122.067C122.939 42.2207 123.611 42.4087 124.083 42.7847C124.555 43.1607 124.791 43.7287 124.791 44.4887C124.791 45.3287 124.423 45.9127 123.687 46.2407ZM120.447 43.4207C120.407 43.4207 120.387 43.4407 120.387 43.4807V45.7007C120.387 45.7407 120.407 45.7607 120.447 45.7607H122.067C122.491 45.7607 122.823 45.6607 123.063 45.4607C123.311 45.2527 123.435 44.9687 123.435 44.6087C123.435 44.2407 123.311 43.9527 123.063 43.7447C122.823 43.5287 122.491 43.4207 122.067 43.4207H120.447ZM122.163 49.4087C122.579 49.4087 122.907 49.2967 123.147 49.0727C123.395 48.8487 123.519 48.5447 123.519 48.1607C123.519 47.7687 123.395 47.4647 123.147 47.2487C122.899 47.0247 122.563 46.9127 122.139 46.9127H120.447C120.407 46.9127 120.387 46.9327 120.387 46.9727V49.3487C120.387 49.3887 120.407 49.4087 120.447 49.4087H122.163ZM126.604 50.6207C126.564 50.6207 126.528 50.6087 126.496 50.5847C126.472 50.5527 126.46 50.5167 126.46 50.4767V42.3647C126.46 42.3247 126.472 42.2927 126.496 42.2687C126.528 42.2367 126.564 42.2207 126.604 42.2207H127.708C127.748 42.2207 127.78 42.2367 127.804 42.2687C127.836 42.2927 127.852 42.3247 127.852 42.3647V49.3607C127.852 49.4007 127.872 49.4207 127.912 49.4207H131.932C131.972 49.4207 132.004 49.4367 132.028 49.4687C132.06 49.4927 132.076 49.5247 132.076 49.5647V50.4767C132.076 50.5167 132.06 50.5527 132.028 50.5847C132.004 50.6087 131.972 50.6207 131.932 50.6207H126.604ZM139.003 43.2767C139.003 43.3167 138.987 43.3527 138.955 43.3847C138.931 43.4087 138.899 43.4207 138.859 43.4207H134.767C134.727 43.4207 134.707 43.4407 134.707 43.4807V45.7247C134.707 45.7647 134.727 45.7847 134.767 45.7847H137.515C137.555 45.7847 137.587 45.8007 137.611 45.8327C137.643 45.8567 137.659 45.8887 137.659 45.9287V46.8407C137.659 46.8807 137.643 46.9167 137.611 46.9487C137.587 46.9727 137.555 46.9847 137.515 46.9847H134.767C134.727 46.9847 134.707 47.0047 134.707 47.0447V49.3607C134.707 49.4007 134.727 49.4207 134.767 49.4207H138.859C138.899 49.4207 138.931 49.4367 138.955 49.4687C138.987 49.4927 139.003 49.5247 139.003 49.5647V50.4767C139.003 50.5167 138.987 50.5527 138.955 50.5847C138.931 50.6087 138.899 50.6207 138.859 50.6207H133.459C133.419 50.6207 133.383 50.6087 133.351 50.5847C133.327 50.5527 133.315 50.5167 133.315 50.4767V42.3647C133.315 42.3247 133.327 42.2927 133.351 42.2687C133.383 42.2367 133.419 42.2207 133.459 42.2207H138.859C138.899 42.2207 138.931 42.2367 138.955 42.2687C138.987 42.2927 139.003 42.3247 139.003 42.3647V43.2767ZM148.339 42.2207C148.379 42.2207 148.411 42.2367 148.435 42.2687C148.467 42.2927 148.483 42.3247 148.483 42.3647V43.2887C148.483 43.3287 148.467 43.3647 148.435 43.3967C148.411 43.4207 148.379 43.4327 148.339 43.4327H146.131C146.091 43.4327 146.071 43.4527 146.071 43.4927V50.4767C146.071 50.5167 146.055 50.5527 146.023 50.5847C145.999 50.6087 145.967 50.6207 145.927 50.6207H144.823C144.783 50.6207 144.747 50.6087 144.715 50.5847C144.691 50.5527 144.679 50.5167 144.679 50.4767V43.4927C144.679 43.4527 144.659 43.4327 144.619 43.4327H142.495C142.455 43.4327 142.419 43.4207 142.387 43.3967C142.363 43.3647 142.351 43.3287 142.351 43.2887V42.3647C142.351 42.3247 142.363 42.2927 142.387 42.2687C142.419 42.2367 142.455 42.2207 142.495 42.2207H148.339ZM154.484 50.6207C154.404 50.6207 154.348 50.5847 154.316 50.5127L152.732 47.0567C152.716 47.0247 152.692 47.0087 152.66 47.0087H151.22C151.18 47.0087 151.16 47.0287 151.16 47.0687V50.4767C151.16 50.5167 151.144 50.5527 151.112 50.5847C151.088 50.6087 151.056 50.6207 151.016 50.6207H149.912C149.872 50.6207 149.836 50.6087 149.804 50.5847C149.78 50.5527 149.768 50.5167 149.768 50.4767V42.3647C149.768 42.3247 149.78 42.2927 149.804 42.2687C149.836 42.2367 149.872 42.2207 149.912 42.2207H153.212C153.7 42.2207 154.132 42.3247 154.508 42.5327C154.884 42.7327 155.176 43.0207 155.384 43.3967C155.592 43.7647 155.696 44.1887 155.696 44.6687C155.696 45.2207 155.552 45.6927 155.264 46.0847C154.984 46.4687 154.592 46.7367 154.088 46.8887C154.072 46.8887 154.06 46.8967 154.052 46.9127C154.044 46.9287 154.044 46.9447 154.052 46.9607L155.744 50.4527C155.76 50.4847 155.768 50.5087 155.768 50.5247C155.768 50.5887 155.724 50.6207 155.636 50.6207H154.484ZM151.22 43.4207C151.18 43.4207 151.16 43.4407 151.16 43.4807V45.8687C151.16 45.9087 151.18 45.9287 151.22 45.9287H153.02C153.404 45.9287 153.712 45.8167 153.944 45.5927C154.184 45.3607 154.304 45.0567 154.304 44.6807C154.304 44.3047 154.184 44.0007 153.944 43.7687C153.712 43.5367 153.404 43.4207 153.02 43.4207H151.22ZM160.068 50.7167C159.476 50.7167 158.952 50.6007 158.496 50.3687C158.04 50.1367 157.684 49.8087 157.428 49.3847C157.18 48.9527 157.056 48.4567 157.056 47.8967V42.3647C157.056 42.3247 157.068 42.2927 157.092 42.2687C157.124 42.2367 157.16 42.2207 157.2 42.2207H158.304C158.344 42.2207 158.376 42.2367 158.4 42.2687C158.432 42.2927 158.448 42.3247 158.448 42.3647V47.9207C158.448 48.3927 158.596 48.7767 158.892 49.0727C159.188 49.3687 159.58 49.5167 160.068 49.5167C160.556 49.5167 160.948 49.3687 161.244 49.0727C161.54 48.7767 161.688 48.3927 161.688 47.9207V42.3647C161.688 42.3247 161.7 42.2927 161.724 42.2687C161.756 42.2367 161.792 42.2207 161.832 42.2207H162.936C162.976 42.2207 163.008 42.2367 163.032 42.2687C163.064 42.2927 163.08 42.3247 163.08 42.3647V47.8967C163.08 48.4567 162.956 48.9527 162.708 49.3847C162.46 49.8087 162.108 50.1367 161.652 50.3687C161.196 50.6007 160.668 50.7167 160.068 50.7167ZM167.468 50.7167C166.844 50.7167 166.3 50.6167 165.836 50.4167C165.372 50.2167 165.012 49.9367 164.756 49.5767C164.508 49.2167 164.384 48.7927 164.384 48.3047V48.0047C164.384 47.9647 164.396 47.9327 164.42 47.9087C164.452 47.8767 164.488 47.8607 164.528 47.8607H165.596C165.636 47.8607 165.668 47.8767 165.692 47.9087C165.724 47.9327 165.74 47.9647 165.74 48.0047V48.2327C165.74 48.6007 165.904 48.9087 166.232 49.1567C166.56 49.3967 167.008 49.5167 167.576 49.5167C168.064 49.5167 168.432 49.4127 168.68 49.2047C168.928 48.9967 169.052 48.7287 169.052 48.4007C169.052 48.1767 168.984 47.9887 168.848 47.8367C168.712 47.6767 168.516 47.5327 168.26 47.4047C168.012 47.2767 167.636 47.1167 167.132 46.9247C166.564 46.7167 166.104 46.5207 165.752 46.3367C165.4 46.1527 165.104 45.9047 164.864 45.5927C164.632 45.2727 164.516 44.8767 164.516 44.4047C164.516 43.7007 164.772 43.1447 165.284 42.7367C165.796 42.3287 166.48 42.1247 167.336 42.1247C167.936 42.1247 168.464 42.2287 168.92 42.4367C169.384 42.6447 169.744 42.9367 170 43.3127C170.256 43.6807 170.384 44.1087 170.384 44.5967V44.8007C170.384 44.8407 170.368 44.8767 170.336 44.9087C170.312 44.9327 170.28 44.9447 170.24 44.9447H169.16C169.12 44.9447 169.084 44.9327 169.052 44.9087C169.028 44.8767 169.016 44.8407 169.016 44.8007V44.6687C169.016 44.2927 168.86 43.9767 168.548 43.7207C168.244 43.4567 167.82 43.3247 167.276 43.3247C166.836 43.3247 166.492 43.4167 166.244 43.6007C166.004 43.7847 165.884 44.0447 165.884 44.3807C165.884 44.6207 165.948 44.8167 166.076 44.9687C166.204 45.1207 166.396 45.2607 166.652 45.3887C166.908 45.5087 167.304 45.6647 167.84 45.8567C168.408 46.0727 168.86 46.2687 169.196 46.4447C169.54 46.6207 169.832 46.8687 170.072 47.1887C170.32 47.5007 170.444 47.8927 170.444 48.3647C170.444 49.0847 170.176 49.6567 169.64 50.0807C169.112 50.5047 168.388 50.7167 167.468 50.7167ZM177.214 42.2207C177.254 42.2207 177.286 42.2367 177.31 42.2687C177.342 42.2927 177.358 42.3247 177.358 42.3647V43.2887C177.358 43.3287 177.342 43.3647 177.31 43.3967C177.286 43.4207 177.254 43.4327 177.214 43.4327H175.006C174.966 43.4327 174.946 43.4527 174.946 43.4927V50.4767C174.946 50.5167 174.93 50.5527 174.898 50.5847C174.874 50.6087 174.842 50.6207 174.802 50.6207H173.698C173.658 50.6207 173.622 50.6087 173.59 50.5847C173.566 50.5527 173.554 50.5167 173.554 50.4767V43.4927C173.554 43.4527 173.534 43.4327 173.494 43.4327H171.37C171.33 43.4327 171.294 43.4207 171.262 43.3967C171.238 43.3647 171.226 43.3287 171.226 43.2887V42.3647C171.226 42.3247 171.238 42.2927 171.262 42.2687C171.294 42.2367 171.33 42.2207 171.37 42.2207H177.214Z" fill="black"/>
</svg>
